<svg xmlns="http://www.w3.org/2000/svg" viewBox="0 0 500 500" width="512" height="512"><path d="M333.394 312.315s-29.787 95.574-8.37 126.038c0 0-24.278 2.448-30.644.102-6.365-2.346-9.051-6.201-9.051-6.201s-26.289-89.342-13.989-108.549 62.054-11.39 62.054-11.39zM132.566 312.315s-29.787 95.574-8.37 126.038c0 0-24.278 2.448-30.644.102-6.365-2.346-9.051-6.201-9.051-6.201s-26.289-89.342-13.989-108.549 62.054-11.39 62.054-11.39zM208.036 312.315s-29.787 95.574-8.37 126.038c0 0-24.278 2.448-30.644.102-6.365-2.346-9.051-6.201-9.051-6.201s-26.289-89.342-13.989-108.549c12.301-19.207 62.054-11.39 62.054-11.39z" fill="#d89b80"/><path d="M412.546 182.576s-70.064-105.091-152.57 10.737c-49.021 68.82-41.428 15.378-99.653 12.384-133.752-6.878-91.201 157.937-91.201 157.937 11.343 1.498 74.451-12.105 176.783 1.965 102.333 14.071 248.857-15.557 166.641-183.023z" fill="#d89b80"/><path d="M412.069 182.576s-70.064-105.091-152.57 10.737c-49.021 68.82-41.428 15.378-99.653 12.384-133.752-6.878-91.201 157.937-91.201 157.937 11.343 1.498 74.451-12.105 176.783 1.965 102.333 14.071 248.857-15.557 166.641-183.023z" fill="#d89b80"/><path d="M444.007 174.009s40.042 67.536 9.596 94.581c-72.893 64.752-155.833-85.85-131.096-107.677 24.737-21.826 15.278 31.285 32.012 32.74 16.734 1.455 73.482-9.458 74.21-24.737.728-15.278-10.913-33.467-2.183-32.012s29.102 7.275 17.461 37.105z" fill="#d89b80"/><path d="M332.081 196.079a.991.991 0 00.719-1.675c-6.967-7.334-7.678-15.922-5.391-20.798.767-1.634 1.818-2.606 2.785-2.546 1.17.078 2.368 1.702 3.203 4.346 4.517 14.3 7.176 18.302 7.288 18.465a.99.99 0 001.374.263.995.995 0 00.269-1.376c-.027-.039-2.645-4.036-7.04-17.949-1.438-4.558-3.492-5.631-4.963-5.728-1.888-.115-3.556 1.221-4.713 3.683-2.564 5.466-1.86 14.997 5.75 23.007a.99.99 0 00.719.308zM436.731 168.56c.32 0 .636-.155.826-.443 7.306-10.974 4.672-16.322 2.453-18.533-2.686-2.675-7.145-3.154-9.195-1.776-.986.663-1.326 1.735-.882 2.8 1.798 4.317 2.556 16.892 2.564 17.018.031.546.523.949 1.048.932a.992.992 0 00.932-1.048c-.031-.53-.785-13.038-2.711-17.665-.062-.148-.093-.223.155-.39 1.05-.706 4.482-.661 6.688 1.535 3.089 3.076 2.128 8.768-2.703 16.028a.992.992 0 00.825 1.542z" fill="#251426"/><path d="M423.323 291.408s61.432 40.178 39.055 74.191c-22.377 34.014-58.596 29.421-57.316 39.654 1.279 10.233-37.678 1.279-6.047-35.816s-21.008-39.654-21.008-39.654l45.316-38.375zM74.833 280.527s-57.189 22.351-53.351-48.949 132.412-.559 161.833-83.892-18.567-98.014-32.638-77.548 34.447 73.467-3.928 87.641-108.638 10.124-135.5 41.189-4.427 109.582 54.634 96.898l8.95-15.339z" fill="#d89b80"/><path d="M404.341 338.567s-15.17-53.265-54.824-27.827c-39.654 25.438-29.124 57.94-29.124 57.94s70.23-6.333 83.948-30.113zM270.607 368.054s.637-34.958-29.264-36.045-43.329-1.631-43.329-1.631-29.52 29.357-51.265 28.813c0 0 98.757 16.639 123.858 8.863z" fill="#fae2c9"/><path d="M128.128 361.169c29.392 0 51.351-8.314 65.338-24.76 24.396-28.682 15.633-72.686 15.54-73.128a1.002 1.002 0 00-1.172-.77.99.99 0 00-.769 1.172c.089.432 8.653 43.515-15.118 71.45-14.68 17.251-38.533 25.288-70.858 23.896-.527-.039-1.012.402-1.035.949a.993.993 0 00.95 1.034c2.421.105 4.796.157 7.124.157zM319.126 440.464a.992.992 0 00.963-.754c1.434-5.787-12.141-11.411-13.695-12.034a.993.993 0 00-.739 1.842c5.633 2.26 13.238 6.768 12.507 9.716a.99.99 0 00.964 1.23zM303.148 440.464c.37 0 .725-.208.895-.564 1.045-2.186 1.176-4.291.39-6.256-1.605-4.006-6.482-5.896-6.688-5.975a.992.992 0 00-.705 1.855c.043.016 4.279 1.669 5.554 4.865.576 1.447.465 2.969-.341 4.654a.994.994 0 00.895 1.421zM395.886 410.183c.093 0 .19-.014.285-.042 6.882-2.059 4.622-12.648 4.523-13.097a.998.998 0 00-1.182-.755.993.993 0 00-.756 1.183c.019.092 1.967 9.235-3.155 10.768a.993.993 0 00.285 1.943zM390.768 407.205c.06 0 .12-.005.18-.016 1.483-.269 2.608-1.083 3.258-2.354 2.335-4.57-2.035-13.982-2.541-15.04a.993.993 0 10-1.791.857c1.258 2.631 4.166 10.146 2.564 13.281-.372.728-.959 1.142-1.847 1.304a.992.992 0 00.177 1.968zM407.459 286.537c7.54 0 15.395-1.139 23.54-3.417a.993.993 0 00-.535-1.911c-21.055 5.891-40.126 3.979-56.666-5.694-35.101-20.525-47.43-69.561-47.552-70.054-9.226-23.605-6.07-35.32-1.802-41.015 3.209-4.285 7.804-5.916 10.959-5.646 5.147.454 11.048 20.435 13.56 32.922a.994.994 0 001.946-.392c-.694-3.454-7.025-33.773-15.331-34.507-3.448-.304-8.804 1.203-12.722 6.433-4.568 6.098-8.015 18.473 1.504 42.802.083.375 12.6 50.207 48.428 71.166 10.604 6.203 22.209 9.312 34.671 9.313z" fill="#251426"/><path d="M430.731 242.459s-61.827-34.48-50.333 24.366c7.329 37.527 54.657 34.939 77.209 0 22.552-34.939-18.494-18.098-18.494-18.098l-8.382-6.268z" fill="#fae2c9"/><path d="M451.283 238.76h-29.102s6.548 19.644 14.551 21.826c8.003 2.184 14.551-21.826 14.551-21.826z" fill="#251326"/><path d="M414.339 272.221c4.467 0 11.408-3.563 13.071-4.452a.99.99 0 00.407-1.343.994.994 0 00-1.341-.407c-4.616 2.466-12.18 5.396-13.726 3.828-5.32-5.34-5.382-20.963-5.382-21.12a.992.992 0 10-1.984 0c0 .675.068 16.606 5.959 22.521.692.694 1.748.973 2.996.973z" fill="#251426"/><path d="M403.971 264.486c3.26 0 3.734-.622 3.934-.882a.992.992 0 00-1.577-1.205c-.517.231-3.645.128-6.777-.173l7.562-8.384a.99.99 0 10-1.473-1.329l-8.862 9.825a.996.996 0 00-.194 1.012c.13.347.442.592.808.638 2.959.364 5.069.498 6.579.498z" fill="#251426"/><path d="M378.007 194.322s.166 24.815 4.23 27.343c21.607 13.439 34.422-1.98 34.422-1.98s-4.417-17.894-9.543-19.601c-5.125-1.707-29.109-5.762-29.109-5.762z" fill="#fae2c9"/><path d="M422.182 239.753a.992.992 0 00.951-1.272c-.076-.263-7.709-26.35-9.819-34.491-2.256-8.696-42.182-11.39-46.729-11.668a1 1 0 00-1.05.929.992.992 0 00.93 1.051c16.612 1.018 43.5 4.684 44.926 10.186 2.12 8.171 9.761 34.287 9.839 34.551a.99.99 0 00.952.714z" fill="#251426"/><path d="M395.694 222.688c.198 0 .366-.036.502-.081 3.072-1.013 4.287-11.802 4.666-16.394a.99.99 0 00-.907-1.07c-.492-.056-1.025.359-1.07.907-.591 7.137-2.06 13.787-3.198 14.61-1.533-1.016-4.692-10.238-6.808-18.444a.993.993 0 00-1.922.496c1.087 4.216 4.87 18.101 7.876 19.743.319.174.611.233.861.233z" fill="#251426"/><path d="M427.08 187.324s19.29 3.22 24.203 7.764c4.913 4.544 8.487 32.055-12.17 31.453 0-.001-11.324-16.2-12.033-39.217z" fill="#fae2c9"/><path d="M451.283 239.753a.991.991 0 00.568-1.806c-28.993-20.208-23.495-64.737-23.435-65.183a.992.992 0 10-1.969-.259c-.06.459-5.701 46.18 24.268 67.071.173.118.37.177.568.177z" fill="#251426"/><path d="M442.58 219.841c.262 0 .529-.042.802-.124 3.366-1.023 7.122-8.826 7.841-10.379a.993.993 0 00-1.802-.833c-1.519 3.286-4.661 8.721-6.616 9.315-.236.071-.357.032-.448-.026-1.808-1.102-2.465-8.884-2.353-14.059a.994.994 0 00-.971-1.014.98.98 0 00-1.014.971c-.048 2.271-.122 13.708 3.302 15.795.389.234.813.354 1.259.354zM370.959 233.414a.992.992 0 00.415-1.894l-29.454-13.573a.993.993 0 00-.83 1.802l29.454 13.573a.97.97 0 00.415.092zM370.959 237.935a.994.994 0 00.992-.952.994.994 0 00-.952-1.031l-45.676-1.839c-.548-.047-1.01.404-1.033.952a.994.994 0 00.952 1.031l45.676 1.839h.041zM330.288 254.78c.101 0 .205-.016.306-.048l36.237-11.788a.995.995 0 00.638-1.251.997.997 0 00-1.25-.637l-36.237 11.788a.993.993 0 00.306 1.936zM457.632 231.039a.995.995 0 00.494-.132l28.044-16.09a.991.991 0 10-.989-1.721l-28.044 16.09a.991.991 0 00.495 1.853zM457.632 236.096a.992.992 0 00.221-.025l41.376-9.469a.991.991 0 00.746-1.188.987.987 0 00-1.188-.746l-41.376 9.469a.991.991 0 00.221 1.959zM485.676 248.886a.992.992 0 00.307-1.936l-28.043-9.133a.994.994 0 00-.616 1.888l28.045 9.133c.102.032.205.048.307.048z" fill="#251426"/><path d="M311.305 210.733s-14.833-7.676-23.218 0c-8.384 7.676 3.87 10.686 16.553 12.835 12.684 2.15 13.475-10.338 6.665-12.835zM278.843 204.865c-5.699-4.274 6.234-13.974 13.544-13.974s-2.365 22.358-13.544 13.974zM215.768 301.912c-5.699-4.274 1.775-13.848 9.084-13.848s2.095 22.232-9.084 13.848z" fill="#251326"/><path d="M314.53 197.341s-8.368-15.394-12.254-9.244c-11.449 18.123 17.198 23.647 12.254 9.244zM298.191 165.739s1.935 15.177-10.749 13.93c-12.683-1.246 7.955-24.679 10.749-13.93zM310.015 161.225s-12.039 5.601-3.655 10.11c8.385 4.508 10.749-13.335 3.655-10.11zM316.679 147.466s-.587 13.637-12.469 12.022c-11.881-1.616 12.469-20.406 12.469-12.022zM283.356 233.457s-8.597-12.684-17.841-5.159c-9.244 7.524 1.29 28.193 16.983 25.49 15.693-2.703.858-20.331.858-20.331zM259.71 210.733s10.38 17.055-4.944 17.78c-12.056.57-9.889-30.401 4.944-17.78zM331.728 275.402s-12.469-12.756-21.068-2.186c-8.599 10.57 12.158 28.135 19.628 22.751 11.735-8.458 1.44-20.565 1.44-20.565zM350.904 279.511s-13.168-7.309-9.298 10.104c3.87 17.413 23.326 5.159 9.298-10.104zM324.304 307.624s-13.407-1.505-12.762 10.964 16.768 5.374 18.488-1.72c1.72-7.094-5.726-9.244-5.726-9.244zM290.882 303.696s16.553 16.827 1.935 15.107-8.814-20.111-1.935-15.107zM300.729 286.295s-.655 13.655-9.443 10.075c-8.788-3.579 7.895-29.469 9.443-10.075zM259.925 245.926s-13.329-9.357-18.058-3.926 9.244 17.9 16.123 16.395c6.88-1.505 7.083-9.446 1.935-12.469zM192.528 293.483s-13.329-9.357-18.058-3.926 9.244 17.9 16.123 16.395 7.082-9.446 1.935-12.469zM243.802 229.28s-3.01 18.571-10.319 16.365c-20.17-6.088 8.475-22.106 10.319-16.365zM376.998 164.421s-7.69-10.418-13.147-7.69c-5.457 2.729-2.232 16.371 6.573 17.612 8.807 1.24 9.583-6.484 6.574-9.922zM393.523 176.079s.91-13.147-4.506-11.658-10.873 19.1-2.439 20.34 6.945-8.682 6.945-8.682zM383.695 156.276s-6.19-4.505-8.676-1.777c-2.486 2.729 5.451 7.21 8.676 6.334 3.225-.877 0-4.557 0-4.557zM356.232 168.886s6.272 9.165 0 10.784c-6.272 1.618-6.627-16.49 0-10.784z" fill="#251326"/><path d="M351.723 147.07a.985.985 0 00.81-.417.988.988 0 00-.227-1.378c-.112-.079-2.746-1.947-7.281-1.681a.992.992 0 00-.932 1.048.998.998 0 001.048.932c3.756-.215 5.988 1.299 6.011 1.315a.986.986 0 00.571.181zM334.801 151.601c.124 0 .25-.023.372-.073 3.508-1.418 6.089-.686 6.116-.678a.995.995 0 001.232-.666.99.99 0 00-.657-1.233c-.128-.041-3.242-.961-7.436.738a.992.992 0 00.373 1.912zM330.007 144.669c.124 0 .25-.023.372-.073 3.506-1.418 6.089-.686 6.116-.678a.999.999 0 001.232-.666.99.99 0 00-.657-1.233c-.13-.041-3.242-.961-7.436.738a.992.992 0 00.373 1.912zM323.515 151.126c.124 0 .25-.023.372-.073 3.504-1.418 6.089-.687 6.116-.679a.994.994 0 001.232-.666.99.99 0 00-.657-1.233c-.13-.042-3.238-.962-7.436.739a.992.992 0 00.373 1.912zM348.008 153.464c.124 0 .25-.023.372-.073 3.502-1.419 6.087-.687 6.114-.679a.997.997 0 001.233-.667.99.99 0 00-.657-1.233c-.13-.041-3.24-.956-7.434.739a.992.992 0 00.372 1.913zM362.895 352.297c.961 0 3.684-.206 6.754-2.278a.99.99 0 00.267-1.378.996.996 0 00-1.376-.267c-3.134 2.114-5.816 1.939-5.841 1.933-.512-.025-1.023.362-1.068.908a.99.99 0 00.899 1.07c.026.002.152.012.365.012zM369.407 341.591a.991.991 0 00.234-.028c.132-.032 3.275-.827 6.017-4.425a.99.99 0 10-1.577-1.203c-2.291 3.006-4.887 3.695-4.913 3.701a.995.995 0 00-.721 1.202.989.989 0 00.96.753zM377.063 345.111a.991.991 0 00.234-.028c.132-.032 3.277-.827 6.019-4.426a.992.992 0 10-1.577-1.203c-2.291 3.007-4.889 3.696-4.915 3.702a.994.994 0 00-.721 1.202.99.99 0 00.96.753zM431.158 384.77a.991.991 0 00.234-.028c.132-.032 3.275-.827 6.017-4.425a.99.99 0 10-1.577-1.203c-2.291 3.006-4.887 3.695-4.913 3.701a.995.995 0 00-.721 1.202.99.99 0 00.96.753zM432.842 375.427a.977.977 0 00.233-.028c.134-.032 3.277-.827 6.019-4.425a.992.992 0 10-1.577-1.203c-2.291 3.007-4.887 3.695-4.913 3.701a.995.995 0 00-.721 1.202c.11.451.513.753.959.753zM442.685 375.427a.977.977 0 00.233-.028c.134-.032 3.279-.827 6.021-4.425a.992.992 0 10-1.577-1.203c-2.291 3.007-4.889 3.695-4.915 3.701a.998.998 0 00-.723 1.202.99.99 0 00.961.753zM311.764 411.83a.993.993 0 00.874-.521c.064-.12 1.576-2.99.733-7.436a.993.993 0 00-1.95.37c.713 3.76-.517 6.1-.531 6.124a.992.992 0 00.874 1.463zM305.942 404.33a.984.984 0 00.87-.518c.066-.12 1.579-2.991.734-7.437a.994.994 0 00-1.95.37c.705 3.713-.519 6.104-.533 6.128a.994.994 0 00.879 1.457zM312.521 397.012a.993.993 0 00.874-.521c.064-.12 1.576-2.99.733-7.436a1 1 0 00-1.159-.79.992.992 0 00-.791 1.16c.713 3.761-.517 6.101-.531 6.124a.992.992 0 00.874 1.463zM185.922 416.323a.993.993 0 00.874-.521c.064-.12 1.576-2.99.733-7.436a.992.992 0 00-1.95.37c.713 3.76-.517 6.101-.531 6.124a.992.992 0 00.874 1.463zM180.101 408.825a.993.993 0 00.874-.521c.064-.12 1.576-2.99.733-7.436a.992.992 0 00-1.95.37c.713 3.76-.517 6.101-.531 6.124a.992.992 0 00.874 1.463zM186.682 401.505a.993.993 0 00.874-.521c.064-.12 1.576-2.99.733-7.436a.992.992 0 00-1.95.37c.713 3.76-.517 6.101-.531 6.124a.992.992 0 00.874 1.463zM107.202 410.009a.993.993 0 00.874-.521c.064-.12 1.576-2.99.733-7.436a.992.992 0 00-1.95.37c.713 3.76-.517 6.101-.531 6.124a.992.992 0 00.874 1.463zM101.381 402.511a.993.993 0 00.874-.521c.064-.12 1.576-2.99.733-7.436a.992.992 0 00-1.95.37c.713 3.76-.517 6.101-.531 6.124a.992.992 0 00.874 1.463zM104.257 381.934a.988.988 0 00.872-.519c.064-.12 1.576-2.99.731-7.436a.992.992 0 10-1.95.37c.705 3.714-.519 6.104-.531 6.129a.994.994 0 00.878 1.456zM99.466 388.159a.993.993 0 00.874-.521c.064-.12 1.576-2.99.733-7.436a1 1 0 00-1.159-.79.992.992 0 00-.791 1.16c.713 3.76-.517 6.101-.531 6.124a.992.992 0 00.874 1.463zM107.962 395.189a.984.984 0 00.87-.518c.066-.12 1.579-2.991.734-7.437a.994.994 0 00-1.95.37c.705 3.713-.519 6.104-.533 6.128a.994.994 0 00.879 1.457zM379.358 336.246a.977.977 0 00.233-.028c.134-.032 3.277-.827 6.019-4.425a.992.992 0 10-1.577-1.203c-2.291 3.007-4.887 3.695-4.913 3.701a.994.994 0 00-.721 1.202c.11.45.513.753.959.753zM357.095 348.754a.991.991 0 00.234-.028c.132-.032 3.277-.827 6.019-4.425a.99.99 0 10-1.577-1.203c-2.291 3.006-4.889 3.695-4.915 3.701a.994.994 0 00.239 1.955zM347.421 358.725a.977.977 0 00.233-.028c.134-.032 3.277-.827 6.019-4.425a.992.992 0 10-1.577-1.203c-2.291 3.007-4.887 3.695-4.913 3.701a.994.994 0 00-.721 1.202c.11.451.513.753.959.753zM345.675 347.904a.977.977 0 00.233-.028c.134-.032 3.277-.827 6.019-4.425a.992.992 0 10-1.577-1.203c-2.291 3.007-4.887 3.695-4.913 3.701a.994.994 0 00-.721 1.202c.11.451.513.753.959.753zM361.06 337.257a.977.977 0 00.233-.028c.134-.032 3.279-.827 6.021-4.425a.992.992 0 10-1.577-1.203c-2.291 3.007-4.889 3.695-4.915 3.701a.998.998 0 00-.723 1.202.99.99 0 00.961.753zM208.293 361.487a.991.991 0 00.99-.947.99.99 0 00-.944-1.037c-3.775-.175-5.818-1.92-5.837-1.938a.998.998 0 00-1.399.089.991.991 0 00.081 1.395c.103.091 2.543 2.227 7.062 2.436a.377.377 0 00.047.002zM216.93 355.297c1.091 0 2.386-.14 3.831-.555a.993.993 0 00-.547-1.907c-3.684 1.054-6.124.047-6.147.036a.992.992 0 00-.779 1.825c.086.036 1.451.601 3.642.601zM220.971 362.693c1.091 0 2.386-.14 3.831-.555a.993.993 0 00-.547-1.907c-3.684 1.055-6.124.046-6.147.036a.99.99 0 00-1.302.524.99.99 0 00.523 1.301c.086.036 1.45.601 3.642.601zM228.104 356.953c1.091 0 2.386-.14 3.831-.555a.993.993 0 00-.547-1.907c-3.684 1.057-6.122.047-6.147.036a.99.99 0 00-1.302.524.99.99 0 00.523 1.301c.086.036 1.451.601 3.642.601zM202.778 353.69c1.091 0 2.386-.14 3.831-.555a.993.993 0 00-.547-1.907c-3.634 1.043-6.128.044-6.151.034a.995.995 0 00-1.296.532.989.989 0 00.523 1.295c.086.036 1.448.601 3.64.601zM189.063 355.91c1.091 0 2.386-.14 3.831-.555a.993.993 0 00-.547-1.907c-3.684 1.056-6.122.047-6.147.036a.99.99 0 00-1.302.524.99.99 0 00.523 1.301c.086.036 1.451.601 3.642.601zM179.946 359.562a13.88 13.88 0 003.833-.556.993.993 0 00-.547-1.907c-3.635 1.046-6.13.044-6.153.035a.998.998 0 00-1.296.533.99.99 0 00.523 1.295c.085.036 1.448.6 3.64.6zM194.123 346.188a13.88 13.88 0 003.833-.556.993.993 0 00-.547-1.907c-3.635 1.045-6.128.045-6.153.035a.996.996 0 00-1.296.533.99.99 0 00.523 1.295c.086.035 1.448.6 3.64.6zM212.824 346.837c1.091 0 2.386-.14 3.831-.555a.993.993 0 00-.547-1.907c-3.682 1.054-6.124.047-6.147.036a.988.988 0 00-1.302.524.99.99 0 00.523 1.301c.086.036 1.45.601 3.642.601z" fill="#251426"/><path d="M314.647 297.989s-6.36-11.645-11.817-3.955c-5.457 7.69-3.599 13.069 5.809 14.139 9.408 1.07 8.506-6.679 6.008-10.184zM181.41 152.538s-15.158 3.105-22.875-3.354c0 0 4.147-18.829-6.796-36.073-13.752-21.67-21.672-63.99 17.919-51.219 45.57 14.698 11.752 90.646 11.752 90.646zM450.008 325.412s-7.276-11.747-14.883-5.133c-7.607 6.615 5.953 20.175 9.261 19.844 3.307-.33 12.567-3.935 5.622-14.711zM424.872 318.926s11.75 12.268-2.226 15.244c-7.383 1.573-11.003-26.85 2.226-15.244zM436.622 343.101s-8.773-8.268-11.75 0c-2.977 8.268-2.252 13.229 7.969 10.584 10.221-2.647 3.781-10.584 3.781-10.584zM456.292 339.426s-11.576 6.651-8.599 12.274c2.977 5.622 8.93 5.468 12.237-1.4 3.307-6.869.321-13.644-3.638-10.874zM287.002 378.489s-4.63 12.899 0 15.875c4.63 2.977 17.277-2.658 15.096-14.222-2.18-11.562-13.357-8.496-15.096-1.653zM287.661 364.102s2.977 13.243-6.615 8.689c-9.591-4.554 3.206-16.178 6.615-8.689zM280.628 396.845c-1.159 3.214-1.28 9.922 6.658 9.591 7.938-.33-5.048-14.056-6.658-9.591zM281.501 387.088c-3.35 2.15-9.192-8.268-4.7-9.426 4.492-1.157 8.05 7.277 4.7 9.426zM163.606 381.82s-4.63 12.899 0 15.875 17.277-2.658 15.096-14.222c-2.181-11.562-13.357-8.496-15.096-1.653zM164.264 367.433s2.977 13.243-6.615 8.689c-9.591-4.554 3.207-16.178 6.615-8.689zM157.232 400.176c-1.159 3.214-1.28 9.922 6.658 9.591 7.937-.33-5.048-14.056-6.658-9.591zM158.105 390.42c-3.35 2.15-9.192-8.268-4.7-9.426 4.492-1.158 8.05 7.276 4.7 9.426zM84.554 291.889s-4.63 12.899 0 15.875c4.63 2.977 17.277-2.658 15.096-14.222-2.18-11.563-13.357-8.496-15.096-1.653zM85.213 277.502s2.977 13.243-6.615 8.689c-9.592-4.555 3.206-16.179 6.615-8.689zM78.18 310.244c-1.159 3.214-1.28 9.922 6.658 9.591 7.938-.33-5.048-14.055-6.658-9.591zM79.053 300.488c-3.35 2.15-9.192-8.268-4.7-9.426 4.492-1.158 8.05 7.276 4.7 9.426zM336.639 308.936c-3.98-.031-3.176-11.949 1.218-10.462 4.394 1.486 2.762 10.493-1.218 10.462zM147.904 215.126s-12.469-12.756-21.068-2.186c-8.599 10.57 12.158 28.135 19.628 22.751 11.735-8.458 1.44-20.565 1.44-20.565zM167.081 219.235s-13.168-7.309-9.298 10.104c3.869 17.413 23.326 5.159 9.298-10.104zM140.48 247.348s-13.407-1.505-12.762 10.964 16.768 5.374 18.488-1.72c1.72-7.094-5.726-9.244-5.726-9.244zM107.058 243.42s16.553 16.827 1.935 15.107-8.814-20.111-1.935-15.107zM116.905 226.019s-.655 13.655-9.443 10.075c-8.788-3.579 7.895-29.469 9.443-10.075zM130.824 237.713s-6.36-11.645-11.817-3.955c-5.457 7.69-3.599 13.069 5.809 14.139 9.408 1.07 8.506-6.679 6.008-10.184zM152.815 248.66c-3.98-.031-3.176-11.949 1.218-10.462 4.394 1.486 2.763 10.493-1.218 10.462zM62.504 192.629c-2.979-2.64 5.462-11.092 7.796-7.083 2.333 4.009-4.817 9.724-7.796 7.083zM156.834 303.595s-12.469-12.756-21.068-2.186 12.158 28.135 19.628 22.751c11.735-8.457 1.44-20.565 1.44-20.565zM176.011 307.705s-13.168-7.309-9.298 10.104c3.869 17.413 23.325 5.159 9.298-10.104zM221.307 310.373s-13.168-7.309-9.298 10.104 23.326 5.16 9.298-10.104zM149.41 335.818s-13.407-1.505-12.762 10.964c.645 12.469 16.768 5.374 18.488-1.72 1.72-7.094-5.726-9.244-5.726-9.244zM115.988 331.89s16.553 16.827 1.935 15.107c-14.618-1.72-8.814-20.111-1.935-15.107z" fill="#251326"/><path d="M138.559 329.261s-.655 13.655-9.443 10.075 7.895-29.469 9.443-10.075zM175.869 333.91s-6.36-11.645-11.817-3.955-3.599 13.069 5.809 14.139 8.506-6.68 6.008-10.184zM247.5 317.996s-6.36-11.645-11.817-3.955c-5.457 7.69-3.599 13.069 5.809 14.139 9.408 1.07 8.506-6.679 6.008-10.184zM120.417 332.624c-3.98-.031-3.177-11.949 1.218-10.462 4.394 1.486 2.762 10.493-1.218 10.462zM231.223 311.478c-3.98-.031-3.177-11.949 1.218-10.462s2.763 10.493-1.218 10.462z" fill="#251326"/><path d="M192.65 439.927a.99.99 0 00.814-1.56c-.169-.241-.378-.74-.618-1.318-1.008-2.409-2.882-6.892-8.786-8.959a.988.988 0 00-1.264.608.991.991 0 00.609 1.264c5.07 1.775 6.661 5.579 7.61 7.852.296.71.531 1.272.822 1.688a.99.99 0 00.813.425zM180.101 440.464h.021a.994.994 0 00.971-1.014c-.161-7.267-8.734-9.874-9.098-9.981a.994.994 0 00-.562 1.904c.076.022 7.546 2.311 7.676 8.123a.99.99 0 00.992.968zM115.592 439.659a.99.99 0 00.814-1.56c-.169-.241-.378-.74-.618-1.318-1.008-2.409-2.88-6.892-8.786-8.96a.992.992 0 00-.656 1.873c5.071 1.774 6.661 5.578 7.61 7.851.297.71.531 1.272.822 1.688a.99.99 0 00.814.426zM103.044 440.196h.021a.994.994 0 00.971-1.014c-.161-7.267-8.736-9.874-9.1-9.981a.993.993 0 00-.562 1.903c.076.022 7.548 2.311 7.678 8.123a.991.991 0 00.992.969z" fill="#251426"/><path d="M156.653 180.933s1.615-11.469-16.56-8.823c-18.175 2.646-16.139 19.407-16.139 19.407s28.077-4.407 32.699-10.584zM129.174 162.756s-.084 18.85-12.269 16.913c-12.185-1.937-11.986-12.501-11.986-12.501s21.984-3.898 24.255-4.412zM137.08 160.821s3.741 7.651 9.669 5.997c5.928-1.654 3.489-10.556 3.489-10.556s-9.47 3.608-13.158 4.559zM57.937 196.763s-4.151-15.392-18.703-10.762c-14.552 4.63-10.363 24.276-10.363 24.276s12.967-11.83 29.066-13.514zM65.883 173.737s-.157 12.843-7.945 11.396-9.276-7.167-9.276-7.167 11.787-5.249 17.221-4.229zM13.621 196.434s9.408 6.104 5.439 15.365c-3.969 9.261-16.845 4.34-16.845 4.34s4.165-13.691 11.406-19.705zM21.519 244.908s-11.72 8.88-7.992 13.743c3.892 5.076 11.807 4.833 11.807 4.833s-3.621-14.254-3.815-18.576zM12.776 241.683s6.289 9.607-3.969 11.04c-7.259 1.015-6.592-26.238 3.969-11.04zM9.355 270.402s4.744-8.205 12.02 0 2.094 16.741 2.094 16.741-9.701-6.047-14.114-16.741z" fill="#251326"/><path d="M183.533 94.967c.306 0 .612-.141.808-.404 1.029-1.37.081-5.279-.576-7.487a.993.993 0 00-1.903.565c.748 2.514 1.157 5.202.878 5.753a.98.98 0 00.205 1.378.972.972 0 00.588.195zM180.196 107.446c.306 0 .612-.141.81-.405 1.025-1.369.078-5.278-.577-7.486a.996.996 0 00-1.234-.669.993.993 0 00-.669 1.233c.746 2.515 1.157 5.204.878 5.755a.98.98 0 00.205 1.377.972.972 0 00.587.195zM172.706 89.61c.306 0 .612-.141.81-.405 1.025-1.369.078-5.277-.577-7.485a.997.997 0 00-1.234-.669.994.994 0 00-.669 1.234c.746 2.514 1.157 5.202.878 5.753a.98.98 0 00.205 1.377.972.972 0 00.587.195zM177.845 83.002c.306 0 .612-.142.81-.405 1.025-1.37.078-5.278-.577-7.486a.994.994 0 00-1.903.565c.746 2.514 1.157 5.203.876 5.754a.981.981 0 00.207 1.377.972.972 0 00.587.195zM181.116 121.419c.302 0 .605-.137.802-.393 1.043-1.357.145-5.277-.483-7.493a.986.986 0 00-1.227-.684.992.992 0 00-.684 1.225c.715 2.524 1.091 5.218.804 5.764a.981.981 0 00.19 1.38.98.98 0 00.598.201zM187.879 110.75c.306 0 .612-.142.81-.405 1.025-1.37.078-5.278-.577-7.486a.994.994 0 00-1.903.565c.746 2.514 1.157 5.203.876 5.754a.981.981 0 00.207 1.377.974.974 0 00.587.195z" fill="#fff"/></svg>
