<svg enable-background="new 0 0 115.002 124.02" height="512" viewBox="0 0 115.002 124.02" width="512" xmlns="http://www.w3.org/2000/svg"><g><g id="XMLID_3_"><g><path d="m113.2 67.76c-.02-.02-.05-.04-.07-.06-1.95-1.61-4.83-1.56-6.63.22-1.23 1.22-1.98 2.41-2.47 3.4-2.73 5.58.31 10.41-2.77 16.27-1.23 2.34-2.93 3.88-4.13 4.8-1.5-5.47-4.85-10.33-8.87-12.81-3.52-2.18-6.04-1.59-10.69-5-3.76-2.76-6.09-6.06-7.49-8.47.97-.7 1.9-1.44 2.77-2.22 2.05-1.82 3.84-3.85 5.3-6.04 2.19-3.23 3.69-6.82 4.34-10.64.29-1.59.42-3.23.39-4.89-.02-1.27-.13-2.52-.34-3.74h.01c1.6-6.2 2.99-13.64 3.57-22.11.4-6.05.32-11.58-.02-16.47-3.09.62-7.67 1.91-12.56 4.84-5.61 3.37-9.22 7.46-11.29 10.23-2.44-1.01-5.03-1.79-7.74-2.33.14-.57.26-1.17.34-1.84.19-1.58.13-2.95 0-3.98-.56.81-1.51 1.96-2.98 2.98-1.97 1.37-3.89 1.82-4.97 1.99.39-1.08.77-2.42.99-3.98.35-2.39.22-4.45 0-5.97-.92 1.77-2.2 3.84-3.97 5.97l-.04.04c-2.19 2.63-5.2 4.4-8.52 5.22-2.13.53-4.17 1.21-6.12 2.03-2.05-2.77-5.68-6.93-11.39-10.36-4.88-2.93-9.46-4.22-12.56-4.84-.33 4.89-.42 10.42-.01 16.47.61 8.95 2.13 16.74 3.84 23.14-.15 1.18-.21 2.38-.19 3.59.02 1.41.16 2.8.41 4.15.63 3.58 2 6.95 3.98 10.01 1.37 2.14 3.04 4.12 4.95 5.91 2.07 1.95 4.44 3.67 7.04 5.13-.6 5.32-.55 9.73-.35 12.92.04.7.09 1.36.14 1.99-.31.31-6.84 7.03-4.58 15.79 1.65 6.38 6.82 9.42 7.83 9.99.06 1.22.11 2.32.14 3.29-.97.99-1.79 2.26-1.93 3.87 0 .03-.01.06-.01.08-.19 2.6 1.98 4.76 4.58 4.76h2.2 7.74 3.17c.65 1.69 2.36 2.91 4.3 2.91h2.2 7.74 4.15c1.93 0 3.67-1.19 4.31-2.91h4.11 7.74 2.22c2.4 0 4.51-1.85 4.57-4.25 0-.16 0-.33-.02-.5h.01c2.84-1.24 8.01-4.07 10.7-9.78.35-.73.64-1.49.87-2.25 8.88-1.23 12.21-4.31 13.59-6.96 2.97-5.73-1.79-12.12 1.94-20.31.44-.97.94-1.83 1.46-2.6 1.45-2.14 1.06-5.03-.93-6.68z" fill="#fbe2ae"/><g fill="#604533"><path d="m47.49 48.05c-.55.36-1.03.45-1.14.47-.14.02-.27.03-.41.03-.02 0-.05 0-.07 0-.14 0-.28-.01-.42-.03-.1-.02-.58-.11-1.13-.47-.69-.44-3.24-2.1-2.9-3.58.33-1.42 3.1-1.8 4.48-1.8 1.39 0 4.16.38 4.49 1.8.34 1.48-2.22 3.14-2.9 3.58z"/><path d="m28.49 32.94c2.67 0 4.84 2.17 4.84 4.84 0 2.68-2.17 4.85-4.84 4.85s-4.83-2.17-4.83-4.85c0-2.67 2.16-4.84 4.83-4.84z"/><path d="m61.94 32.94c2.67 0 4.83 2.17 4.83 4.84 0 2.68-2.16 4.85-4.83 4.85-2.68 0-4.84-2.17-4.84-4.85 0-2.67 2.16-4.84 4.84-4.84z"/></g><path d="m23.66 14c-2.04 1.19-4.38 2.33-6.77 4.41-2.73 2.36-4.84 4.77-6.46 6.92-.48-2.66-.86-5.56-1.07-8.67-.27-3.98-.21-7.63.01-10.85 2.04.41 5.05 1.26 8.27 3.19 2.64 1.59 4.61 3.42 6.02 5z" fill="#f7b6ad"/><path d="m82.03 5.81c.22 3.22.27 6.87 0 10.85-.21 3.11-.58 6.01-1.06 8.67-1.62-2.15-3.74-4.56-6.46-6.92-2.4-2.08-4.73-3.22-6.77-4.41 1.4-1.58 3.37-3.41 6.01-5 3.22-1.93 6.24-2.78 8.28-3.19z" fill="#f7b6ad"/><path d="m58.48 124h-7.74-2.2c-1.94 0-3.65-1.22-4.3-2.91h-3.17-7.74-2.2c-2.6 0-4.77-2.16-4.58-4.76 0-.02.01-.05.01-.08.14-1.61.96-2.88 1.93-3.87-.03-.97-.08-2.07-.14-3.29-.14-2.61-.39-5.76-.82-9.31-.92-7.48-1.94-10.93-2.43-16.47-.05-.63-.1-1.29-.14-1.99-.2-3.19-.25-7.6.35-12.92 6.03 3.38 13.31 5.32 21.12 5.22 9.05-.11 17.3-2.92 23.65-7.51 1.4 2.41 3.73 5.71 7.49 8.47 4.65 3.41 7.17 2.82 10.69 5 4.02 2.48 7.37 7.34 8.87 12.81 1.07 3.87 1.21 8.05.01 11.92-.23.76-.52 1.52-.87 2.25-2.69 5.71-7.86 8.54-10.7 9.78h-.01c.01-.03 0-.06 0-.09-.03-.38-.1-.73-.19-1.06-.47-1.61-1.72-2.88-3.25-3.56-1.89-.84-4.77-1.77-8.36-1.74-3.04.03-5.56.75-7.37 1.49h-.01c-.36 1.36-.74 2.66-1.13 3.9.7.7 1.78 2 1.93 3.88.02.2.02.39.02.59-.01.47-.1.92-.26 1.34-.64 1.72-2.38 2.91-4.31 2.91z" fill="#ffdba2"/></g><g><path d="m15.422 25.259c-.437-.338-1.065-.258-1.403.178-2.805 3.622-4.707 7.74-5.564 12.014-.112.557.283 1.093.846 1.175.53.077 1.014-.28 1.12-.805.799-3.964 2.569-7.787 5.18-11.159.338-.436.258-1.065-.179-1.403z" fill="#604533"/><path d="m77.831 25.489c-.339-.437-.966-.518-1.403-.18s-.518.966-.18 1.403c2.41 3.12 4.062 6.519 4.926 10.128.125.522.623.862 1.151.763.557-.104.931-.654.799-1.205-.927-3.895-2.702-7.556-5.293-10.909z" fill="#604533"/><g><path d="m41.579 55.25c-.209 0-.42-.065-.601-.201-.441-.332-.529-.959-.197-1.4l4.29-5.7c.332-.44.958-.531 1.4-.197.441.332.529.959.197 1.4l-4.29 5.7c-.195.26-.495.398-.799.398z" fill="#604533"/></g><g><path d="m50.161 55.25c-.304 0-.604-.138-.8-.398l-4.29-5.7c-.332-.441-.244-1.068.197-1.4.443-.333 1.069-.242 1.4.197l4.29 5.7c.332.441.244 1.068-.197 1.4-.18.136-.391.201-.6.201z" fill="#604533"/></g><g><path d="m21.061 49.55c-.034 0-.068-.001-.103-.005l-20.06-2.05c-.549-.056-.949-.546-.893-1.096.056-.549.536-.957 1.096-.893l20.061 2.05c.549.056.949.547.893 1.097-.053.514-.487.897-.994.897z" fill="#604533"/></g><g><path d="m5.01 62.28c-.375 0-.734-.212-.905-.573-.236-.5-.022-1.096.478-1.331l17.17-8.1c.5-.235 1.096-.021 1.331.478.236.5.022 1.096-.478 1.331l-17.17 8.1c-.138.064-.283.095-.426.095z" fill="#604533"/></g><g><path d="m12.241 69.64c-.275 0-.55-.113-.747-.335-.368-.413-.331-1.044.082-1.412l13.35-11.881c.412-.368 1.046-.33 1.412.083.367.413.33 1.045-.083 1.412l-13.349 11.88c-.191.17-.429.253-.665.253z" fill="#604533"/></g><g><path d="m69.359 49.55c-.507 0-.941-.383-.994-.898-.056-.549.344-1.041.893-1.096l20.07-2.05c.547-.065 1.041.344 1.096.893.056.549-.343 1.04-.893 1.096l-20.07 2.05c-.034.003-.069.005-.102.005z" fill="#604533"/></g><g><path d="m85.419 62.28c-.143 0-.288-.031-.426-.096l-17.17-8.1c-.5-.235-.713-.832-.478-1.331s.832-.713 1.331-.478l17.17 8.1c.5.235.713.832.478 1.331-.17.362-.53.574-.905.574z" fill="#604533"/></g><g><path d="m78.189 69.64c-.236 0-.474-.083-.664-.253l-13.351-11.88c-.413-.367-.449-1-.082-1.412.368-.413.999-.449 1.412-.082l13.35 11.88c.413.367.45.999.083 1.412-.197.222-.472.335-.748.335z" fill="#604533"/></g><path d="m52.157 116.326c-.493-.247-1.094-.047-1.342.447-.507 1.014-.864 2.084-1.06 3.18-.191 1.063-.237 2.138-.138 3.208.051.548.551.943 1.092.845l.143-.026c.487-.088.798-.541.753-1.035-.079-.88-.039-1.764.118-2.639.162-.908.458-1.796.88-2.638.248-.494.048-1.095-.446-1.342z" fill="#604533"/><path d="m59.464 119.942c-.197-1.091-.553-2.157-1.06-3.169-.248-.494-.85-.694-1.342-.447-.494.248-.694.848-.447 1.342.421.842.718 1.727.88 2.629.157.88.197 1.767.118 2.648-.044.494.266.947.754 1.035l.142.026c.542.098 1.042-.297 1.093-.845.1-1.071.053-2.149-.138-3.219z" fill="#604533"/><g><path d="m43.971 120.16c-.029 0-.058-.001-.087-.004-.55-.047-.958-.532-.91-1.083.13-1.507.778-2.916 1.927-4.191.003-4.089-.316-8.135-.949-12.033-.478-2.937-1.369-5.614-2.803-8.425-1.38-2.697-3.169-5.14-5.328-7.28l-.55 2.225c-.076.306-.29.558-.58.681-.29.124-.621.103-.893-.054-.957-.554-2.301-1.573-3.269-3.283-1.321-2.324-1.203-4.593-1.091-5.461.07-.548.57-.941 1.12-.864.548.071.935.572.864 1.12-.086.668-.176 2.417.847 4.218.415.732.919 1.3 1.414 1.735l.606-2.452c.084-.339.339-.61.673-.714.335-.104.698-.026.96.206 2.902 2.565 5.26 5.598 7.008 9.014 1.532 3.002 2.484 5.866 2.997 9.015.671 4.132.998 8.423.973 12.756-.001.26-.104.508-.286.694-1.007 1.029-1.546 2.097-1.648 3.267-.045.521-.482.913-.995.913z" fill="#604533"/></g><g><path d="m67.179 120.16c-.516 0-.954-.397-.996-.92-.093-1.163-.645-2.257-1.641-3.253-.264-.264-.359-.652-.247-1.007.404-1.285.78-2.582 1.117-3.855.142-.534.685-.851 1.223-.711.534.141.852.688.711 1.223-.296 1.119-.621 2.255-.969 3.385 1.077 1.228 1.682 2.591 1.799 4.06.044.55-.366 1.032-.917 1.076-.026.001-.053.002-.08.002z" fill="#604533"/></g><g><path d="m66.391 112.38c-.085 0-.173-.011-.259-.035-.534-.143-.85-.691-.707-1.225 1.181-4.405 2.091-8.919 2.705-13.417.363-2.629.62-5.253.762-7.801.031-.551.511-.968 1.055-.942.551.031.973.503.942 1.055-.146 2.602-.408 5.28-.778 7.96-.625 4.579-1.552 9.176-2.755 13.662-.12.448-.524.743-.965.743z" fill="#604533"/></g><g><path d="m69.901 90.95c-.021 0-.042 0-.062-.002-.551-.034-.971-.508-.937-1.059.098-1.609.158-3.174.178-4.652.007-.553.479-.997 1.013-.987.552.007.994.461.987 1.013-.02 1.51-.082 3.108-.182 4.749-.033.53-.473.938-.997.938z" fill="#604533"/></g><g fill="#604533"><path d="m72.467 113.416c-.494-.248-1.095-.047-1.342.447-.507 1.013-.863 2.083-1.06 3.181-.214 1.195-.217 2.275-.142 3.146.05.586.597.996 1.176.891.503-.091.861-.544.817-1.052-.063-.726-.061-1.631.118-2.632.163-.909.459-1.797.88-2.639.248-.494.047-1.095-.447-1.342z"/><path d="m79.774 117.044c-.197-1.098-.553-2.168-1.06-3.181-.248-.495-.849-.695-1.342-.447-.494.248-.694.848-.447 1.342.421.842.718 1.73.88 2.639.179 1.003.181 1.907.118 2.632-.044.509.314.961.816 1.052.579.105 1.127-.304 1.177-.891.076-.87.072-1.95-.142-3.146z"/><path d="m34.746 113.416c-.495-.249-1.095-.046-1.341.448-.507 1.015-.864 2.085-1.06 3.181-.214 1.196-.217 2.276-.143 3.146.05.586.598.996 1.177.891.502-.091.861-.544.816-1.052-.063-.725-.061-1.629.118-2.632.162-.907.458-1.795.88-2.639.248-.496.048-1.096-.447-1.343z"/><path d="m42.054 117.044c-.196-1.098-.553-2.168-1.06-3.182-.248-.495-.85-.695-1.342-.447-.494.248-.694.848-.447 1.342.421.842.717 1.73.88 2.639.179 1.003.181 1.907.118 2.632-.044.509.314.961.816 1.052.579.105 1.127-.304 1.177-.891.075-.869.072-1.949-.142-3.145z"/></g><g><path d="m69.89 90.96c-.553 0-1-.448-1-1 0-.244.089-.469.236-.644 1.467-1.939 3.232-3.589 5.248-4.903 1.289-.834 2.657-1.52 4.071-2.041.52-.19 1.093.075 1.284.593.191.519-.075 1.093-.593 1.284-1.275.47-2.511 1.089-3.672 1.841-1.829 1.193-3.433 2.695-4.765 4.462-.03.04-.063.077-.098.111-.181.183-.433.297-.711.297z" fill="#604533"/></g></g></g></g></svg>
