<svg id="Layer_3" height="512" viewBox="0 0 64 64" width="512" xmlns="http://www.w3.org/2000/svg" data-name="Layer 3"><path d="m50.629 38a6.629 6.629 0 0 1 -6.629-6.629 6.628 6.628 0 0 1 4.018-6.093 14.267 14.267 0 0 0 5.119-3.72l4.863-5.558v14.629a7.371 7.371 0 0 1 -7.371 7.371z" fill="#684d42"/><path d="m48.018 25.278a14.267 14.267 0 0 0 5.119-3.72l2.863-3.272v9.343a7.371 7.371 0 0 1 -7.371 7.371 6.6 6.6 0 0 1 -4.309-1.6 6.617 6.617 0 0 1 -.32-2.029 6.628 6.628 0 0 1 4.018-6.093z" fill="#886f65"/><path d="m35 17c0-3.314 6-15 6-15s6 11.686 6 15a6 6 0 0 1 -12 0z" fill="#684d42"/><path d="m44 15a5.991 5.991 0 0 1 -7.673 5.759 5.97 5.97 0 0 1 -1.327-3.759c0-2.446 3.268-9.452 4.98-12.954 1.748 3.706 4.02 8.915 4.02 10.954z" fill="#886f65"/><path d="m32 57a7.242 7.242 0 0 1 5.121 2.121l.478.478a8.2 8.2 0 0 0 5.801 2.401 8.606 8.606 0 0 0 7.16-3.832 8.608 8.608 0 0 0 1.44-4.768 15.439 15.439 0 0 0 -4.522-10.917l-10.357-10.362a7.242 7.242 0 0 0 -5.121-2.121 7.242 7.242 0 0 0 -5.121 2.121l-10.357 10.357a15.439 15.439 0 0 0 -4.522 10.922 8.608 8.608 0 0 0 1.445 4.773 8.606 8.606 0 0 0 7.16 3.827 8.2 8.2 0 0 0 5.8-2.4l.478-.478a7.242 7.242 0 0 1 5.117-2.122z" fill="#4b352e"/><path d="m37.121 32.121a7.243 7.243 0 0 0 -10.242 0l-10.357 10.357a15.437 15.437 0 0 0 -3.145 4.581 15.417 15.417 0 0 0 -.377 3.341 8.6 8.6 0 0 0 8.605 8.6 8.2 8.2 0 0 0 5.8-2.4l.478-.478a7.243 7.243 0 0 1 10.242 0l.478.478a8.2 8.2 0 0 0 5.797 2.4 8.606 8.606 0 0 0 7.16-3.832c.137-.2.244-.425.361-.64a8.549 8.549 0 0 0 .079-1.128 15.439 15.439 0 0 0 -4.522-10.917z" fill="#684d42"/><path d="m13.371 38a6.629 6.629 0 0 0 6.629-6.629 6.628 6.628 0 0 0 -4.018-6.093 14.267 14.267 0 0 1 -5.119-3.72l-4.863-5.558v14.629a7.371 7.371 0 0 0 7.371 7.371z" fill="#684d42"/><path d="m15.982 25.278a14.267 14.267 0 0 1 -5.119-3.72l-2.863-3.272v9.343a7.371 7.371 0 0 0 7.371 7.371 6.6 6.6 0 0 0 4.309-1.6 6.617 6.617 0 0 0 .32-2.029 6.628 6.628 0 0 0 -4.018-6.093z" fill="#886f65"/><path d="m29 17c0-3.314-6-15-6-15s-6 11.686-6 15a6 6 0 0 0 12 0z" fill="#684d42"/><path d="m20 15a5.991 5.991 0 0 0 7.673 5.759 5.97 5.97 0 0 0 1.327-3.759c0-2.446-3.268-9.452-4.98-12.954-1.748 3.706-4.02 8.915-4.02 10.954z" fill="#886f65"/></svg>