<svg id="Layer_1" height="512" viewBox="0 0 512 512" width="512" xmlns="http://www.w3.org/2000/svg" data-name="Layer 1"><path d="m445.12 197.96.01-.01s59.53-119.94 6.12-166.3c-42.56-36.93-87.72 10.9-104.31 31.86a15.605 15.605 0 0 1 -17.08 5.19c-62.99-20.69-125.29-8.22-149.16-1.91a15.725 15.725 0 0 1 -16.43-5.56c-16.09-20.62-60.74-68.69-103.52-31.57-53.41 46.35 6.12 166.3 6.12 166.3h.01a126.906 126.906 0 0 0 -13.81 54.14c-.48 20.59.34 42.95 4.41 60.39a176.618 176.618 0 0 0 14.69 41.08c28.82 56.32 94.93 93.34 105.09 98.55l158.28 4.14c10.16-5.21 75.47-44.38 104.29-100.7a176.549 176.549 0 0 0 14.69-41.07c4.07-17.44 4.89-39.81 4.41-60.39a126.906 126.906 0 0 0 -13.81-54.14z" fill="#e5aa6a"/><path d="m102.17 351.57a176.618 176.618 0 0 1 -14.69-41.08c-4.07-17.44-4.89-39.8-4.41-60.39a126.906 126.906 0 0 1 13.81-54.14h-.01s-59.53-119.95-6.12-166.3a56.587 56.587 0 0 1 19.061-11.25c-15.438-4.742-32.391-3.21-49.061 11.25-53.41 46.35 6.12 166.3 6.12 166.3h.01a126.906 126.906 0 0 0 -13.81 54.14c-.48 20.59.34 42.95 4.41 60.39a176.618 176.618 0 0 0 14.69 41.08c28.82 56.32 94.93 93.34 105.09 98.55h30c-10.16-5.21-76.27-42.23-105.09-98.55z" fill="#c6905c"/><path d="m307.39 325.08c-.01-.01-.01-.01-.01-.02-4.58-3.98-14.59-4.87-34.41 1.57a44.284 44.284 0 0 1 -30.3-1.05c-22.95-9.33-33.81-8.01-38.37-2.86a.031.031 0 0 0 -.01.02c-4.86 5.52-2.5 15.41 0 21.33l24.09 23.47c-1.38.62 2.35 10.96 10.47 20.33 10.16 11.72 28.62 11.31 37.87-1.15 6.12-8.25 8.19-16.61 6.9-17.18l24.09-23.48c2.66-6.31 5.38-16.04-.32-20.98z" fill="#57555c"/><path d="m381.76 190.27s24.49 14.8 29.64 35.39c0 0-31.15-14.69-42.01-10.92 6.42-7.93 10.23-17.42 12.37-24.47z" fill="#d67a35"/><path d="m384.2 180.02v.01a78.048 78.048 0 0 1 -2.44 10.24c-2.14 7.05-5.95 16.54-12.37 24.47-10.1 12.49-26.69 21.13-53.46 10.37 10.48-49.25 53.11-47.39 68.27-45.09z" fill="#e2e4ed"/><path d="m142.6 212.73c-17.71-.67-42 10.93-42 10.93 5.15-20.58 29.67-35.29 29.67-35.29 2.15 7.04 5.95 16.47 12.33 24.36z" fill="#d67a35"/><path d="m196.07 223.11c-26.78 10.76-43.36 2.11-53.47-10.38-6.38-7.89-10.18-17.32-12.33-24.36a77.2 77.2 0 0 1 -2.47-10.34c15.17-2.31 57.79-4.16 68.27 45.08z" fill="#e2e4ed"/><path d="m339.02 418.78a71.516 71.516 0 0 1 -3.48 35.48c-7.35 19.38-26.38 39.84-73.65 41.74-55.3.04-76.62-24.21-84.63-45.88a75.992 75.992 0 0 1 -4.28-33.34 67.886 67.886 0 0 0 56.38 18.67 48.9 48.9 0 0 0 9.89-2.33c10.5-3.77 22.1-3.78 32.18 1.01a37.792 37.792 0 0 0 11.21 3.31 67.859 67.859 0 0 0 56.38-18.66z" fill="#f5c684"/><path d="m307.71 346.06s-1.76 20.41-24.09 23.48c-9.09-4.08-11.92-14.44-9.09-16.95 24.47-21.75 25.09-16.01 33.18-6.53z" fill="#3b3a41"/><path d="m237.47 350.59c2.83 2.52 0 12.87-9.09 16.95-22.4-3.37-24.09-23.47-24.09-23.47.47-8.81 8.73-15.21 33.18 6.52z" fill="#3b3a41"/><path d="m207.26 450.12a74.732 74.732 0 0 1 -3.967-16.249 68.587 68.587 0 0 1 -30.313-17.091 75.992 75.992 0 0 0 4.28 33.34c8.01 21.67 29.33 45.92 84.63 45.88 4.23-.17 8.225-.5 12.014-.948-42.09-4.652-59.569-25.791-66.644-44.932z" fill="#d6aa76"/><g fill="#20374f"><path d="m221.96 249.128a4.992 4.992 0 0 0 5.7-4.183c4.237-27.6-12.23-56.47-12.934-57.685a5 5 0 1 0 -8.656 5.007c.155.267 15.415 27 11.706 51.161a5 5 0 0 0 4.184 5.7z"/><path d="m183.793 182.106a5 5 0 0 0 4.637-6.869c-4.672-11.6-3.563-23 3.3-33.87a52.937 52.937 0 0 1 12.41-13.548 5 5 0 0 0 -5.757-8.177c-11.625 8.167-30.6 31.078-19.226 59.33a5 5 0 0 0 4.636 3.134z"/><path d="m244.328 166.026a5 5 0 1 0 8.945-4.469c-2.647-5.3-14.769-17.039-17.172-19.339a5 5 0 1 0 -6.914 7.224c6.313 6.046 13.902 14.106 15.141 16.584z"/><path d="m81.022 307.041a5 5 0 0 0 9.583-2.859 54.33 54.33 0 0 1 11.187-51.524 5 5 0 1 0 -7.534-6.576 64.283 64.283 0 0 0 -13.236 60.959z"/><path d="m112.262 291.64a5 5 0 0 0 6.955-1.276c2.372-3.436 7.514-4.9 9.3-5.173a5 5 0 0 0 -1.426-9.9c-1.092.155-10.824 1.735-16.106 9.391a5 5 0 0 0 1.277 6.958z"/><path d="m112.262 311.6a5 5 0 0 0 6.955-1.276c2.373-3.438 7.517-4.9 9.3-5.173a5 5 0 0 0 -1.428-9.9c-1.092.155-10.824 1.735-16.106 9.391a5 5 0 0 0 1.279 6.958z"/><path d="m190.8 96.973a4.953 4.953 0 0 0 2.686.789 5.03 5.03 0 0 0 4.212-2.274c.18-.275 4.5-6.733 12.217-5.984a5 5 0 1 0 .962-9.953c-13.923-1.35-21.307 10.079-21.614 10.567a4.981 4.981 0 0 0 1.537 6.855z"/><path d="m188.832 116.972a5 5 0 0 0 6.9-1.56c.042-.068 4.326-6.707 12.195-5.95a5 5 0 1 0 .963-9.953c-13.923-1.352-21.308 10.08-21.615 10.567a5 5 0 0 0 1.557 6.896z"/><path d="m244.262 117.669a5 5 0 1 0 9.078-4.194c-3.074-6.653-11.543-13.779-12.5-14.569a5 5 0 0 0 -6.377 7.7c2.937 2.44 8.198 7.594 9.799 11.063z"/><path d="m61.3 195.9a131.381 131.381 0 0 0 -13.228 54.088c-.6 25.445.933 46.184 4.541 61.645a180.028 180.028 0 0 0 15.105 42.217c.15.293.308.583.46.876a132.731 132.731 0 0 0 -13.262 3.585 5 5 0 1 0 3.115 9.5 125.067 125.067 0 0 1 15.3-3.945 182.136 182.136 0 0 0 12.087 17.434 96.943 96.943 0 0 0 -20.9 10.532 5 5 0 1 0 5.565 8.309 88.162 88.162 0 0 1 22.128-10.585 247.717 247.717 0 0 0 19.389 19.922c-13.191 5.255-23.747 12.022-31.49 20.233a5 5 0 1 0 7.278 6.857c8.433-8.949 20.2-15.2 32.69-19.584a321.84 321.84 0 0 0 53.163 36.673 68.3 68.3 0 0 0 11.893 19.552c16.066 18.441 41.839 27.791 76.61 27.791h.351c31.8-1.278 54.958-10.855 68.836-28.464a61.951 61.951 0 0 0 8.612-14.779 333.187 333.187 0 0 0 55.575-40.5c12.2 4.367 23.659 10.551 31.919 19.315a5 5 0 1 0 7.277-6.857c-7.661-8.13-18.078-14.837-31.077-20.068a253.2 253.2 0 0 0 18.645-20.193 88.313 88.313 0 0 1 22.455 10.69 5 5 0 0 0 5.566-8.309 97.1 97.1 0 0 0 -21.466-10.735 186.745 186.745 0 0 0 11.563-17.439 125.333 125.333 0 0 1 16.4 4.147 5 5 0 1 0 3.115-9.5 133.382 133.382 0 0 0 -14.531-3.851 180.925 180.925 0 0 0 14.41-40.832c3.608-15.46 5.136-36.2 4.541-61.644a131.353 131.353 0 0 0 -13.235-54.088 339.421 339.421 0 0 0 22.39-64.59c11.178-48.73 4.759-85.185-18.565-105.425-12.759-11.078-26.847-15.978-41.887-14.572-30.38 2.84-56.658 30.728-69.619 47.1a10.633 10.633 0 0 1 -11.6 3.547c-64.23-21.094-127.7-8.419-152-1.992a10.722 10.722 0 0 1 -11.2-3.8c-12.69-16.262-38.481-43.98-68.637-46.9-15.068-1.461-29.232 3.46-42.1 14.632-23.333 20.229-29.752 56.684-18.574 105.415a339.524 339.524 0 0 0 22.392 64.592zm34.441 182.227a178.55 178.55 0 0 1 -11.623-15.894c23.17-2.587 45.622.59 63.094 4.77.019 2.642.159 5.346.45 8.115-15.145-1.607-33.619-1.669-51.921 3.009zm7.385 8.56a133.109 133.109 0 0 1 29.407-2.534 167.482 167.482 0 0 1 16.887 1.219 71.789 71.789 0 0 0 4.8 13.583c-6.118.808-12.684 1.912-19.391 3.434q-6.465 1.467-12.353 3.278a250.676 250.676 0 0 1 -19.35-18.98zm28.553 26.777a204.671 204.671 0 0 1 27.887-5.08 73.419 73.419 0 0 0 8.216 10.175 82.043 82.043 0 0 0 1.376 21.206 330.617 330.617 0 0 1 -37.479-26.301zm191.332 52.961c-11.982 15.139-32.58 23.406-61.219 24.575h-.048c-31.691 0-54.906-8.167-68.994-24.272-11.667-13.339-14.506-29.464-15.016-39.547a72.872 72.872 0 0 0 42.6 13.879 71.761 71.761 0 0 0 9.7-.658 53.9 53.9 0 0 0 10.9-2.581c9.777-3.507 19.843-3.216 28.345.828a42.953 42.953 0 0 0 12.684 3.749 71.734 71.734 0 0 0 9.7.659 72.918 72.918 0 0 0 43.175-14.309c.101 9.486-1.627 24.791-11.827 37.677zm20.615-22.634a78.445 78.445 0 0 0 .708-23.361 73.316 73.316 0 0 0 9.468-12.167 204.165 204.165 0 0 1 30.08 5.5 326.921 326.921 0 0 1 -40.256 30.028zm48.97-37.932q-6.186-1.921-13-3.47c-7.235-1.642-14.318-2.8-20.838-3.626a71.844 71.844 0 0 0 4.222-13.129 168.972 168.972 0 0 1 18.912-1.481 133.006 133.006 0 0 1 29.166 2.485 261.55 261.55 0 0 1 -18.458 19.221zm25.553-27.865c-19.053-4.774-38.256-4.449-53.659-2.623q.333-3.978.293-7.777c17.531-4.4 40.58-7.965 64.46-5.476a183.529 183.529 0 0 1 -11.094 15.876zm-354.123-344.559c10.721-9.3 22.36-13.416 34.587-12.231 27.422 2.66 52.3 31.03 61.719 43.1a20.711 20.711 0 0 0 21.644 7.319c23.445-6.2 84.636-18.437 146.327 1.825a20.669 20.669 0 0 0 22.557-6.841c9.64-12.167 35.04-40.757 62.709-43.344 12.21-1.139 23.785 2.953 34.4 12.168 25.683 22.288 22.556 64.218 15.41 95.468a331.815 331.815 0 0 1 -18.625 55.809c-7.857-13.453-16.448-23.746-22.271-30.715-.078-.094-.159-.184-.243-.271-9.431-9.748-18.568-16.788-31.214-26.533l-2.7-2.083a133.075 133.075 0 0 0 -35.083-19.435 5 5 0 0 0 -3.475 9.377 123.08 123.08 0 0 1 32.45 17.976l2.706 2.086c12.254 9.442 21.123 16.276 30 25.435 12.37 14.808 37.971 45.527 39 89.667.575 24.6-.866 44.5-4.282 59.138a170.333 170.333 0 0 1 -14.268 39.933c-.243.475-.5.946-.744 1.419-26.035-3.455-51.305.116-70.568 4.784a92.323 92.323 0 0 0 -22.848-48.922 5.269 5.269 0 0 0 -.493-.44c-1.262-.994-29.8-24.177-20.989-76.33a61.37 61.37 0 0 0 18.772 3.2 42.474 42.474 0 0 0 21.531-5.611 47.022 47.022 0 0 0 12.13-10.19c7.192-1.081 25.6 5.567 37.1 10.984a5 5 0 0 0 6.981-5.738c-4.468-17.842-21.474-31.3-28.678-36.321.21-.806.395-1.561.559-2.259l.179.044a5 5 0 0 0 2.563-9.666c-1.206-.321-29.8-7.679-53.268 6.735-13.608 8.356-22.55 22.182-26.575 41.092-12.791 60.093 19.341 88.506 23.227 91.685 1.83 1.966 17.062 19.032 20.02 44.323-9.13 2.625-16.24 5.255-20.5 6.959a5 5 0 1 0 3.71 9.287c3.7-1.479 9.672-3.694 17.274-5.971q-.078 3.191-.454 6.51a166.637 166.637 0 0 0 -21.403 5.083 5 5 0 1 0 3.056 9.522 145.652 145.652 0 0 1 16.266-4.068 62.019 62.019 0 0 1 -3.945 10.277c-6.433-.536-11.875-.748-15.714-.82a5 5 0 1 0 -.189 10c2.5.047 5.932.161 10.04.422a63.171 63.171 0 0 1 -59.105 25.219 32.994 32.994 0 0 1 -9.737-2.872c-10.923-5.193-23.715-5.624-36.017-1.209a43.847 43.847 0 0 1 -8.869 2.085 63.14 63.14 0 0 1 -57.513-23.165c4.471-.3 8.211-.43 10.873-.48a5 5 0 1 0 -.189-10c-4.1.076-10.022.31-17.037.932a61.966 61.966 0 0 1 -4.572-10.757 149.643 149.643 0 0 1 18.216 4.436 5 5 0 0 0 3.057-9.522 169.789 169.789 0 0 0 -23.61-5.448q-.479-3.483-.614-6.834c8.734 2.515 15.561 5.035 19.639 6.664a5 5 0 0 0 3.71-9.287 222.7 222.7 0 0 0 -23.056-7.675c2.61-25.932 18.318-43.625 20.152-45.607 3.913-3.2 36-31.619 23.221-91.681-4.025-18.91-12.967-32.736-26.575-41.093-23.469-14.412-52.063-7.055-53.268-6.733a5 5 0 1 0 2.568 9.665c.01 0 .079-.021.174-.044q.254 1.085.581 2.344c-7.224 5.006-24.233 18.4-28.7 36.237a5 5 0 0 0 7 5.727c.223-.105 21.453-10.137 37.518-10.458a46.774 46.774 0 0 0 11.689 9.674 42.464 42.464 0 0 0 21.536 5.609 61.367 61.367 0 0 0 18.772-3.2c8.814 52.152-19.726 75.334-20.974 76.316a5.073 5.073 0 0 0 -.508.453 92.161 92.161 0 0 0 -23.032 50.3c-19.225-4.428-43.9-7.571-69.217-3.993-.652-1.188-1.294-2.381-1.911-3.587a170.39 170.39 0 0 1 -14.268-39.934c-3.416-14.638-4.857-34.536-4.282-59.137 1.03-44.078 26.561-74.775 39-89.668 8.879-9.157 17.745-15.989 29.993-25.427l2.717-2.094a123.048 123.048 0 0 1 32.45-17.975 5 5 0 1 0 -3.475-9.377 133.044 133.044 0 0 0 -35.083 19.434l-2.712 2.091c-12.642 9.741-21.775 16.779-31.2 26.525-.084.088-.217.24-.3.334-5.8 6.937-14.368 17.207-22.214 30.64-12.207-28.226-44.935-115.063-3.216-151.266zm257.815 188.519c3.764-13.933 10.789-24.163 20.942-30.42 12-7.4 26.115-7.907 35.414-7.153-2.232 9.071-8.475 27.9-23.138 36.337-9.071 5.217-20.234 5.617-33.218 1.236zm57.112-12.387a81.274 81.274 0 0 0 5.4-11.419c4.918 3.7 12.29 10.038 17.358 17.932-6.846-2.66-15.371-5.489-22.758-6.513zm-188.794 10.391c-12.968 4.376-24.12 3.983-33.184-1.216-14.64-8.4-20.919-27.3-23.167-36.379 9.263-.76 23.314-.253 35.349 7.138 10.186 6.255 17.23 16.499 21.002 30.457zm-56.72-11.7a115.348 115.348 0 0 0 -23.29 6.074c5.077-7.97 12.556-14.373 17.524-18.1a80.567 80.567 0 0 0 5.766 12.025z"/><path d="m304.252 187.52a5 5 0 0 0 -6.891 1.588c-.71 1.135-17.33 28.115-13 55.85a5 5 0 0 0 4.934 4.229 5.133 5.133 0 0 0 .777-.06 5 5 0 0 0 4.17-5.711c-3.746-24 11.448-48.763 11.6-49.01a5 5 0 0 0 -1.59-6.886z"/><path d="m313.62 121.637a5 5 0 1 0 -5.749 8.183c.271.19 26.989 19.378 15.7 47.413a5 5 0 1 0 9.276 3.735c11.377-28.252-7.602-51.163-19.227-59.331z"/><path d="m258.727 163.552a5 5 0 1 0 8.945 4.471c1.237-2.477 8.823-10.537 15.141-16.584a5 5 0 0 0 -6.914-7.225c-2.399 2.3-14.525 14.04-17.172 19.338z"/><path d="m410.687 247.6a5 5 0 0 0 -.479 7.055 54.331 54.331 0 0 1 11.192 51.522 5 5 0 1 0 9.583 2.859 64.284 64.284 0 0 0 -13.236-60.959 5 5 0 0 0 -7.06-.477z"/><path d="m384.907 277.289a5 5 0 0 0 -1.43 9.9c1.783.274 6.932 1.734 9.305 5.175a5 5 0 0 0 8.232-5.679c-5.283-7.661-15.014-9.241-16.107-9.396z"/><path d="m384.907 297.248a5 5 0 1 0 -1.4 9.9c.064.009 6.46 1.082 9.28 5.17a5 5 0 0 0 8.232-5.679c-5.288-7.657-15.019-9.239-16.112-9.391z"/><path d="m302.082 91.5c7.666-.74 11.992 5.643 12.213 5.979a5 5 0 0 0 8.439-5.365c-.307-.487-7.683-11.924-21.615-10.567a5 5 0 1 0 .963 9.953z"/><path d="m303.114 101.505a5 5 0 1 0 .963 9.953c7.665-.738 11.985 5.633 12.214 5.978a5 5 0 0 0 8.438-5.365c-.308-.487-7.682-11.92-21.615-10.566z"/><path d="m261.1 122.107a5 5 0 0 0 6.636-2.442c1.6-3.465 6.86-8.623 9.8-11.06a5 5 0 0 0 -6.377-7.7c-.956.79-9.425 7.916-12.5 14.569a5 5 0 0 0 2.441 6.633z"/><path d="m98.683 35.185c.293.123 26.567 11.4 41.2 41.721a98.027 98.027 0 0 0 -16.768-3.828 5 5 0 0 0 -1.422 9.9 86.089 86.089 0 0 1 16.056 3.759c-10.075 5.987-25.71 17.479-34.085 34.823a5 5 0 1 0 9 4.348c11.074-22.93 38.147-34.784 38.414-34.9a5 5 0 0 0 2.782-6.169c-14.3-43.215-49.861-58.277-51.368-58.9a5 5 0 0 0 -3.815 9.243z"/><path d="m360.916 93c.272.117 27.3 11.878 38.414 34.9a5 5 0 1 0 9-4.349c-8.375-17.343-24.01-28.835-34.085-34.823a86.222 86.222 0 0 1 16.057-3.759 5 5 0 0 0 -1.423-9.9 98 98 0 0 0 -16.764 3.831c14.635-30.325 40.908-41.6 41.2-41.72a5 5 0 0 0 -3.815-9.244c-1.507.62-37.067 15.682-51.368 58.9a5 5 0 0 0 2.784 6.164z"/><path d="m215.884 313.732c5.642-9.79 12.4-23.746 12.471-34.533a5 5 0 0 0 -4.967-5.033h-.033a5 5 0 0 0 -5 4.967c-.08 12.343-12.883 33.215-18 40.5-6.95 8.158-2.849 20.953-.945 25.708a32.916 32.916 0 0 0 4.225 11.743 31.481 31.481 0 0 0 20.055 14.591c1.61 5.763 6.417 13.727 11.388 19.462a29.459 29.459 0 0 0 22.354 10.227q.567 0 1.137-.021a28.808 28.808 0 0 0 22.162-11.643c3.514-4.734 6.814-11.065 7.88-16.055a31.7 31.7 0 0 0 24-26.369c4.419-10.883 4.152-19.478-.807-24.877-.182-.2-.388-.37-.58-.557-5.189-7.426-17.815-28.092-17.9-40.349a5 5 0 0 0 -5-4.967h-.024a5 5 0 0 0 -4.967 5.033c.073 11.12 7.25 25.6 12.988 35.419-6.6.015-14.858 1.637-24.889 4.895a39.293 39.293 0 0 1 -26.88-.934c-11.724-4.757-21.224-7.139-28.668-7.207zm11.7 48.59c-15.43-3.109-17.939-16.015-18.268-18.354.085-.87.371-2.5 1.34-2.9.592-.243 6.2-1.951 22.885 12.72-.023 1.745-1.756 6.051-5.962 8.534zm56.869 2.013c-4.227-2.482-5.967-6.805-5.984-8.552 10.115-8.941 16.517-13.387 19.078-13.166.958.078 2.588 2.085 4.315 4.211l.542.664c-.991 4.255-4.704 14.345-17.956 16.843zm-9.93-32.947c5.6-1.82 23.86-7.24 29.441-2.671.074.069.145.142.221.207.087.08.181.156.26.243 1.217 1.324 1.577 3.714 1.111 6.829a11.9 11.9 0 0 0 -7.2-3.346c-6.1-.49-12.958 3.593-27.145 16.2-2.234 1.986-3.141 5.18-2.555 8.993a22.049 22.049 0 0 0 9.944 14.657 38.948 38.948 0 0 1 -5.895 11.247 18.86 18.86 0 0 1 -14.513 7.613 19.586 19.586 0 0 1 -15.558-6.762 52.075 52.075 0 0 1 -8.917-14.3 22.026 22.026 0 0 0 9.635-14.446c.586-3.814-.321-7.007-2.555-8.995-15.042-13.372-26.163-18.283-33.992-15.017-.108.046-.215.092-.321.139-.073-2.566.418-4.8 1.742-6.137 1.875-1.9 8.8-5.284 32.564 4.366a49.3 49.3 0 0 0 33.728 1.18z"/><path d="m196.71 381.24a4.985 4.985 0 0 0 0-7.07 5 5 0 1 0 0 7.07z"/><path d="m197.18 394.7a5 5 0 1 0 3.53 1.47 5 5 0 0 0 -3.53-1.47z"/><path d="m213.18 381.7a5.019 5.019 0 1 0 3.53 1.47 5 5 0 0 0 -3.53-1.47z"/><path d="m314.18 377.7a5 5 0 1 0 1.46-3.53 5.036 5.036 0 0 0 -1.46 3.53z"/><path d="m315.18 394.7a5.019 5.019 0 1 0 3.53 1.47 5 5 0 0 0 -3.53-1.47z"/><path d="m299.18 381.7a5.019 5.019 0 1 0 3.53 1.47 5 5 0 0 0 -3.53-1.47z"/></g></svg>