<svg xmlns="http://www.w3.org/2000/svg" width="512" height="512"><path d="M34.826 217.158c-.445 0-.959-.367-1.112-.785-.35-.961-.948-7.053-1.29-10.994-8.196-2.487-9.182-3.578-9.476-4.483a1.421 1.421 0 01.226-1.315c.88-1.147 4.968-3.136 8.505-4.707-.499-9.541.099-10.174.499-10.596.364-.383 1.075-.733 1.812.019a328.682 328.682 0 016.598 6.958c3.699-1.14 9.613-3.916 11.565-2.045.275.35.367.798.255 1.262-.358 1.479-2.936 5.941-4.688 8.87 6.306 7.58 6.786 9.827 5.494 10.955a1.071 1.071 0 01-.932.235c-.048-.011-4.62-1.05-10.039-2.44-5.931 9.063-6.751 9.065-7.413 9.066h-.004zm-.217-11.133c.331 3.735.63 6.45.841 8.04.886-1.092 2.367-3.114 4.624-6.537a250.758 250.758 0 01-5.465-1.503zm8.848.188c3.371.858 6.339 1.563 7.968 1.944-.431-.961-1.621-2.941-4.868-6.894a254.17 254.17 0 01-3.1 4.95zm-9.043-2.452c2.019.592 4.328 1.228 6.881 1.896a256.975 256.975 0 003.825-6.111c-1.489-1.753-3.21-3.7-5.129-5.803-2.011.764-4.1 1.613-6.113 2.484.143 2.449.331 5.051.536 7.534zm-9.059-3.293c.704.43 2.47 1.262 6.879 2.634a367.426 367.426 0 01-.427-5.962c-3.502 1.584-5.556 2.715-6.452 3.328zm16.779-7.52a219.705 219.705 0 014.137 4.68c2.114-3.561 3.295-5.792 3.798-6.926-1.449.134-4.307.943-7.935 2.246zm-8.486-5.96c-.06 1.162-.072 3.248.108 6.982a150.753 150.753 0 014.69-1.907 337.89 337.89 0 00-4.798-5.075zM471.337 355.657c-.085 0-.296-.026-.379-.046a1.058 1.058 0 01-.729-.626 412.066 412.066 0 01-3.794-9.611c-2.884.132-12.164.394-11.764-.967-.182-.349-.141-.902.083-1.226.584-.842 5.216-4.843 8.24-7.393-2.678-8.093-2.346-9.566-1.818-10.302a1.42 1.42 0 011.164-.598c1.499.057 5.486 2.253 8.807 4.236 7.796-5.917 8.263-6.287 9.718-5.275.139.166.356.525.259 1.068-.008.041-.752 4.144-1.884 9.401 8.621 5.942 8.465 7.339 8.391 8.018-.06.535-.41.979-.938 1.188-1.412.56-6.546 1.027-9.948 1.284-2.689 9.996-4.147 10.849-5.408 10.849zm-2.665-10.371a432.302 432.302 0 003.003 7.631c.538-.905 1.47-3.019 2.829-7.952-1.93.129-3.904.237-5.832.321zm-11.029-2.02c2.028.143 5.451.093 8.004.012a253.927 253.927 0 01-1.922-5.332c-2.858 2.421-4.906 4.231-6.082 5.32zm7.822-6.784a238.843 238.843 0 002.417 6.716c2.367-.097 4.827-.233 7.198-.397a222.367 222.367 0 001.785-7.538 149.853 149.853 0 00-5.554-3.564 319.121 319.121 0 00-5.846 4.783zm13.284.076a220.357 220.357 0 01-1.439 6.079c4.133-.326 6.637-.649 7.85-.891-.725-.837-2.58-2.502-6.411-5.188zm-15.817-9.377c.054.823.391 2.747 1.812 7.139a339.773 339.773 0 014.626-3.784c-3.313-1.949-5.421-2.975-6.438-3.355zm10.151 3.12c1.437.887 2.878 1.812 4.264 2.733a342.637 342.637 0 001.383-6.856c-.969.616-2.682 1.81-5.647 4.123zM30.3 321.946h-.006a1.06 1.06 0 01-1.054-1.066l.106-17.844a1.06 1.06 0 012.12.012l-.106 17.844a1.061 1.061 0 01-1.06 1.054z" fill="#241726"/><path d="M23.106 318.051a1.06 1.06 0 01-.607-1.93l14.736-10.273a1.06 1.06 0 011.213 1.739L23.712 317.86a1.05 1.05 0 01-.606.191z" fill="#241726"/><path d="M36.044 318.801a1.06 1.06 0 01-.77-.331l-11.141-11.772a1.062 1.062 0 01.041-1.499 1.062 1.062 0 011.499.041l11.141 11.772a1.062 1.062 0 01-.77 1.789z" fill="#241726"/><path d="M21.091 312.835a1.06 1.06 0 01-.01-2.121l17.163-.164a1.061 1.061 0 01.021 2.121l-17.163.164h-.011zM444.768 193.58h-.006a1.06 1.06 0 01-1.054-1.066l.106-17.844a1.06 1.06 0 012.12.012l-.106 17.844a1.06 1.06 0 01-1.06 1.054z" fill="#241726"/><path d="M437.574 189.685a1.06 1.06 0 01-.607-1.93l14.736-10.273a1.06 1.06 0 011.213 1.739l-14.736 10.273a1.05 1.05 0 01-.606.191z" fill="#241726"/><path d="M450.512 190.434a1.06 1.06 0 01-.77-.331l-11.141-11.772a1.062 1.062 0 01.041-1.499 1.062 1.062 0 011.499.041l11.141 11.772a1.062 1.062 0 01-.77 1.789z" fill="#241726"/><path d="M435.559 184.468a1.06 1.06 0 01-.01-2.121l17.163-.164a1.061 1.061 0 01.021 2.121l-17.163.164h-.011zM451.836 468.889h-.006a1.06 1.06 0 01-1.054-1.066l.106-17.844a1.06 1.06 0 012.12.012l-.106 17.844a1.06 1.06 0 01-1.06 1.054z" fill="#241726"/><path d="M444.642 464.994a1.06 1.06 0 01-.607-1.929l14.736-10.273a1.06 1.06 0 011.213 1.739l-14.736 10.273c-.183.128-.395.19-.606.19z" fill="#241726"/><path d="M457.58 465.744a1.06 1.06 0 01-.77-.331l-11.141-11.772a1.062 1.062 0 01.041-1.499 1.062 1.062 0 011.499.041l11.141 11.772a1.062 1.062 0 01-.77 1.789z" fill="#241726"/><path d="M442.627 459.778a1.06 1.06 0 01-.01-2.121l17.163-.164a1.061 1.061 0 01.021 2.121l-17.163.164h-.011z" fill="#241726"/><path d="M421.368 280.141s-2.092-15.883 13.196-10.744c15.288 5.139 10.307 19.681 4.478 14.705-5.829-4.976 5.107-21.854 16.806-14.339 11.699 7.515 9.082 22.098.784 23.175-8.298 1.076 5.024-16.98 15.477-5.829 10.454 11.151-12.37 31.481-21.704 24.007-9.334-7.475-2.029-19.539.21-12.186s-3.799 14.563-20.354 14.278c-16.555-.285-9.019-25.754-3.233-18.341s-3.82 15.781-15.498 7.047c-11.678-8.734 1.644-26.79 9.838-21.773z" fill="#fff"/><path d="M431.201 314.276l-.959-.008c-5.425-.094-9.246-2.874-10.592-7.664-2.854-.361-5.864-1.679-8.755-3.841-4.576-3.422-6.125-8.617-4.251-14.251 2.28-6.417 7.922-11.426 13.566-10.031-.021-2.211.321-5.972 2.564-8.529 2.504-2.856 6.627-3.409 12.129-1.56 2.123.713 3.98 1.639 5.539 2.758 9.312-10.36 23.928-.099 24.357 11.253 2.967.084 5.686 1.423 8.086 3.982 3.253 3.472 3.854 8.136 1.688 13.134-3.293 7.601-12.284 14.269-19.242 14.269-2.178.001-4.059-.62-5.587-1.844a14.938 14.938 0 01-1.971-1.889c-3.656 2.766-9.351 4.221-16.572 4.221zm-9.302-7.59c.944 2.676 3.189 5.373 8.38 5.462l.922.008c8.325 0 12.872-1.953 15.311-3.808-2.33-3.771-2.152-7.892-.855-10.446 1.59-2.976 4.544-3.561 5.972.72 1.12 3.682.29 7.282-2.278 10.021a12.878 12.878 0 001.717 1.647c1.143.914 2.576 1.379 4.262 1.378 6.107 0 14.351-6.192 17.295-12.991 1.28-2.953 2.096-7.231-1.29-10.842-1.992-2.127-4.208-3.24-6.589-3.311-.499 5.078-3.676 8.909-7.977 9.467a6.457 6.457 0 01-.81.055c-2.125 0-2.934-1.298-2.984-2.513-.12-2.991 4.191-8.02 9.708-8.975-.201-4.621-2.92-9.018-7.409-11.901-4.411-2.836-9.476-1.995-13.193 1.847 3.611 3.439 4.282 7.667 3.276 10.49-.704 1.968-2.21 3.191-3.93 3.191h-.002c-1.031 0-2.094-.441-3.071-1.276-3.218-2.747-2.176-8.11.729-12.122-1.363-.957-2.992-1.757-4.856-2.383-4.622-1.556-7.929-1.253-9.861.948-2.653 3.024-1.955 8.596-1.947 8.652.052.406-.133.806-.474 1.028a1.056 1.056 0 01-1.131.014c-4.882-2.532-10.093 2.489-12.16 8.135-.741 2.229-1.882 7.85 3.512 11.884 2.357 1.763 4.769 2.897 7.055 3.327-.47-4.114.789-8.123 2.448-10.182 1.967-2.196 3.96-2.585 6.196.005 2.054 2.634 2.522 5.605 1.28 8.149-1.226 2.511-3.965 4.13-7.246 4.322zm26.745-8.985c-.195 0-.665.316-1.095 1.162-.948 1.868-1.104 5.038.553 7.999 1.822-2.139 2.359-4.804 1.499-7.624-.34-1.12-.769-1.537-.957-1.537zm-23.852-3.126c-.447 0-.969.343-1.47.965-1.414 1.754-2.45 5.504-1.934 9.044 2.686-.043 4.92-1.242 5.852-3.151.872-1.788.491-3.944-1.048-5.914-.335-.431-.851-.944-1.4-.944zm37.796-9.839c-4.446.988-7.558 5.07-7.492 6.71.008.202.019.478.864.478.164 0 .344-.012.536-.037 3.183-.413 5.568-3.28 6.092-7.151zm-21.869-10.6c-2.506 3.492-2.986 7.454-.99 9.159 1.508 1.284 2.976.819 3.63-1.016.764-2.135.197-5.382-2.64-8.143z" fill="#241726"/><path d="M28.635 356.564s-2.092-15.883 13.196-10.744 10.307 19.681 4.478 14.705c-5.829-4.976 5.107-21.854 16.806-14.339 11.699 7.515 9.082 22.098.784 23.175-8.298 1.076 5.024-16.98 15.477-5.829s-12.37 31.481-21.704 24.007c-9.334-7.475-2.029-19.539.21-12.186 2.239 7.353-3.799 14.563-20.354 14.278-16.555-.285-9.019-25.754-3.233-18.341 5.787 7.414-3.82 15.781-15.498 7.047-11.677-8.734 1.645-26.79 9.838-21.773z" fill="#fff"/><path d="M38.473 390.699l-.963-.008c-5.425-.093-9.246-2.873-10.59-7.664-2.856-.36-5.867-1.678-8.757-3.84-4.576-3.422-6.125-8.617-4.251-14.251 2.28-6.417 7.923-11.429 13.566-10.031-.021-2.211.321-5.973 2.562-8.529 2.508-2.858 6.633-3.41 12.131-1.56 2.12.713 3.98 1.639 5.539 2.758 9.312-10.36 23.928-.099 24.357 11.253 2.967.084 5.686 1.423 8.086 3.982 3.253 3.471 3.854 8.135 1.688 13.133-3.293 7.602-12.284 14.27-19.242 14.27-2.178.001-4.059-.62-5.587-1.844a15.122 15.122 0 01-1.971-1.888c-3.657 2.763-9.349 4.219-16.568 4.219zm-9.306-7.59c.946 2.676 3.189 5.372 8.38 5.461l.926.008c8.322 0 12.868-1.952 15.307-3.806-2.33-3.772-2.152-7.893-.855-10.447 1.59-2.976 4.545-3.561 5.972.72 1.122 3.683.29 7.283-2.278 10.022a12.994 12.994 0 001.717 1.646c1.143.914 2.576 1.379 4.262 1.378 6.107 0 14.351-6.193 17.297-12.992 1.278-2.953 2.094-7.23-1.292-10.841-1.992-2.127-4.208-3.24-6.589-3.311-.499 5.078-3.676 8.909-7.977 9.467-2.806.364-3.738-1.103-3.792-2.459-.122-2.991 4.189-8.019 9.706-8.974-.201-4.622-2.92-9.018-7.409-11.901-4.411-2.837-9.474-1.996-13.193 1.847 3.611 3.438 4.282 7.666 3.276 10.489-.704 1.968-2.21 3.191-3.93 3.192h-.002c-1.031 0-2.094-.441-3.071-1.276-3.218-2.747-2.176-8.11.729-12.122-1.363-.957-2.992-1.757-4.856-2.383-4.618-1.554-7.933-1.252-9.861.947-2.653 3.025-1.955 8.596-1.947 8.652.052.406-.133.806-.474 1.028a1.056 1.056 0 01-1.131.014c-4.882-2.532-10.093 2.489-12.16 8.136-1.566 4.712-.288 9.044 3.512 11.884 2.357 1.763 4.769 2.897 7.057 3.326-.47-4.114.789-8.122 2.448-10.182 1.967-2.196 3.959-2.584 6.194.006 2.054 2.634 2.522 5.604 1.28 8.149-1.226 2.51-3.966 4.13-7.246 4.322zm26.744-8.985c-.195 0-.665.315-1.095 1.161-.948 1.869-1.104 5.039.553 8.002 1.824-2.139 2.359-4.804 1.499-7.625-.342-1.121-.769-1.538-.957-1.538zm-23.851-3.126c-.445 0-.969.342-1.47.964-1.412 1.755-2.45 5.504-1.934 9.044 2.686-.042 4.92-1.241 5.852-3.15.872-1.788.491-3.944-1.048-5.914-.336-.43-.852-.944-1.4-.944zm37.796-9.839c-4.446.987-7.558 5.069-7.492 6.71-.126.441.792.558 1.4.44 3.182-.412 5.568-3.279 6.092-7.15zm-21.87-10.599c-2.506 3.492-2.986 7.454-.99 9.159 1.514 1.29 2.98.813 3.63-1.017.765-2.136.197-5.383-2.64-8.142z" fill="#241726"/><path d="M24.668 79.842s-2.092-15.883 13.196-10.744 10.307 19.681 4.478 14.705c-5.829-4.976 5.107-21.854 16.806-14.339 11.699 7.515 9.082 22.098.784 23.175-8.298 1.076 5.024-16.98 15.477-5.829s-12.37 31.481-21.704 24.007c-9.334-7.475-2.029-19.539.21-12.186 2.239 7.353-3.799 14.563-20.354 14.278s-9.019-25.754-3.233-18.341c5.787 7.414-3.82 15.781-15.498 7.047s1.644-26.79 9.838-21.773z" fill="#fff"/><path d="M34.501 113.977l-.959-.008c-5.425-.093-9.246-2.874-10.592-7.664-2.854-.361-5.864-1.679-8.755-3.841-4.576-3.422-6.125-8.617-4.251-14.251 2.28-6.417 7.922-11.426 13.566-10.031-.021-2.211.321-5.972 2.564-8.529 2.504-2.855 6.627-3.41 12.129-1.56 2.12.713 3.98 1.639 5.539 2.759 4.418-4.679 10.677-5.776 15.98-2.28 5.055 3.248 8.126 8.243 8.376 13.532 2.967.084 5.686 1.423 8.086 3.982 3.253 3.472 3.854 8.136 1.688 13.134-3.293 7.601-12.284 14.269-19.242 14.269-2.178.001-4.059-.62-5.587-1.844a14.938 14.938 0 01-1.971-1.889c-3.655 2.765-9.35 4.221-16.571 4.221zm-9.302-7.591c.944 2.676 3.189 5.373 8.38 5.462l.922.008c8.325 0 12.872-1.953 15.311-3.808-2.33-3.771-2.152-7.892-.855-10.446 1.59-2.976 4.544-3.561 5.972.72 1.12 3.682.29 7.282-2.278 10.021a12.878 12.878 0 001.717 1.647c1.143.914 2.576 1.379 4.262 1.378 6.107 0 14.351-6.192 17.295-12.991 1.28-2.953 2.096-7.231-1.29-10.842-1.992-2.127-4.208-3.24-6.589-3.311-.499 5.078-3.676 8.909-7.977 9.467a6.457 6.457 0 01-.81.055c-2.125 0-2.934-1.298-2.984-2.513-.12-2.991 4.191-8.02 9.708-8.975-.201-4.622-2.92-9.018-7.409-11.901-4.413-2.837-9.476-1.996-13.193 1.848 3.611 3.438 4.282 7.666 3.276 10.489-.704 1.968-2.21 3.191-3.93 3.192h-.002c-1.031 0-2.094-.441-3.071-1.276-3.216-2.747-2.176-8.11.729-12.122-1.363-.958-2.992-1.758-4.856-2.385-4.622-1.554-7.929-1.252-9.861.948-2.653 3.024-1.955 8.596-1.947 8.652.052.406-.133.806-.474 1.028a1.056 1.056 0 01-1.131.014c-4.882-2.532-10.093 2.489-12.16 8.135-.741 2.229-1.882 7.85 3.512 11.884 2.357 1.763 4.769 2.897 7.055 3.327-.47-4.114.789-8.122 2.448-10.182 1.967-2.196 3.96-2.585 6.196.005 2.054 2.634 2.522 5.605 1.28 8.149-1.226 2.512-3.966 4.132-7.246 4.323zm26.744-8.985c-.195 0-.665.316-1.095 1.162-.948 1.868-1.104 5.038.553 7.999 1.822-2.139 2.359-4.804 1.499-7.624-.34-1.12-.768-1.537-.957-1.537zm-23.851-3.126c-.447 0-.969.343-1.47.965-1.414 1.754-2.45 5.504-1.934 9.044 2.686-.043 4.92-1.242 5.852-3.151.872-1.788.491-3.944-1.048-5.914-.336-.43-.851-.944-1.4-.944zm37.796-9.839c-4.446.988-7.558 5.07-7.492 6.71.008.202.019.478.864.478.164 0 .344-.012.536-.037 3.183-.413 5.568-3.28 6.092-7.151zm-21.869-10.6c-2.506 3.493-2.986 7.455-.988 9.16 1.51 1.291 2.976.815 3.628-1.017.764-2.135.196-5.382-2.64-8.143zM43.311 154.773h-.031c-4.042-.017-7.316-3.319-7.3-7.364.017-4.026 3.305-7.3 7.331-7.3 3.976-.067 7.422 3.403 7.333 7.362-.019 4.026-3.309 7.302-7.333 7.302zm.023-12.543c-2.885 0-5.22 2.328-5.233 5.187a5.217 5.217 0 005.187 5.235l.023 1.06v-1.06a5.225 5.225 0 005.212-5.189 5.166 5.166 0 00-1.512-3.69 5.169 5.169 0 00-3.677-1.543zM479.604 180.173h-.031c-4.042-.017-7.316-3.319-7.3-7.364.017-4.026 3.305-7.3 7.331-7.3 3.976-.067 7.422 3.403 7.333 7.362-.019 4.026-3.31 7.302-7.333 7.302zm.023-12.543c-2.885 0-5.22 2.328-5.233 5.187a5.217 5.217 0 005.187 5.235l.023 1.06v-1.06a5.225 5.225 0 005.212-5.189 5.166 5.166 0 00-1.512-3.69 5.169 5.169 0 00-3.677-1.543z" fill="#241726"/><g><path d="M301.483 93.94h-.031c-4.042-.017-7.316-3.319-7.3-7.364.017-4.026 3.305-7.3 7.331-7.3 3.976-.067 7.422 3.403 7.333 7.362-.019 4.026-3.309 7.302-7.333 7.302zm.023-12.543c-2.885 0-5.22 2.328-5.233 5.187a5.217 5.217 0 005.187 5.235l.023 1.06v-1.06a5.225 5.225 0 005.212-5.189 5.166 5.166 0 00-1.512-3.69 5.167 5.167 0 00-3.677-1.543z" fill="#241726"/></g><g><path d="M157.29 430.39h-.031c-4.042-.017-7.316-3.319-7.3-7.364.017-4.026 3.305-7.299 7.331-7.299 3.976-.067 7.422 3.403 7.333 7.362-.019 4.025-3.309 7.301-7.333 7.301zm.023-12.543c-2.885 0-5.22 2.328-5.233 5.187a5.217 5.217 0 005.187 5.235l.023 1.06v-1.06a5.225 5.225 0 005.212-5.189 5.166 5.166 0 00-1.512-3.69 5.167 5.167 0 00-3.677-1.543z" fill="#241726"/></g><g><path d="M459.604 247.898c-.783 0-1.524 0-3.591-8.227-6.972-1.343-7.583-2.162-7.788-2.437-.199-.264-.284-.75-.193-1.066.126-.446.418-1.482 8.385-4.693 3.1-7.824 3.902-8.17 5.473-6.949.511.686.975 2.473 1.679 5.331.22.895.485 1.974.638 2.45.418.186 1.34.517 2.104.79 4.098 1.469 5.156 1.969 5.349 2.948.07.367-.116.902-.393 1.151-.832.747-4.792 2.216-6.869 2.955-3.373 7.675-4.094 7.713-4.732 7.747h-.062zm-8.682-11.576c1.394.402 3.934.978 6.152 1.392.408.077.735.385.835.789.567 2.295 1.307 4.911 1.841 6.404.772-1.391 1.942-3.851 2.891-6.025.118-.27.342-.479.619-.577 1.895-.666 4.034-1.485 5.365-2.068-.934-.393-2.205-.849-3.03-1.144-2.336-.837-2.777-1.019-3.077-1.422-.263-.354-.427-.943-1.008-3.308a85.042 85.042 0 00-.853-3.276c-.694 1.326-1.665 3.579-2.421 5.575a1.067 1.067 0 01-.598.609c-2.461.981-5.252 2.233-6.716 3.051z" fill="#241726"/></g><g><path d="M63.784 252.139c-.785 0-1.528 0-3.595-8.227-6.972-1.341-7.563-2.134-7.788-2.438-.197-.264-.282-.749-.191-1.064.124-.447.416-1.483 8.385-4.694 3.1-7.824 3.903-8.17 5.473-6.949.511.686.975 2.473 1.679 5.331.22.895.485 1.974.638 2.45.418.187 1.34.518 2.104.791 4.098 1.469 5.154 1.968 5.347 2.947.07.367-.116.902-.393 1.151-.832.747-4.792 2.216-6.869 2.955-3.373 7.675-4.094 7.713-4.73 7.747h-.06zm-8.685-11.576c1.394.402 3.934.978 6.15 1.392.408.077.735.385.835.789.567 2.295 1.307 4.911 1.841 6.404.772-1.391 1.942-3.851 2.891-6.025.118-.27.342-.479.619-.577 1.895-.666 4.034-1.485 5.365-2.068-.934-.392-2.203-.848-3.025-1.143-2.34-.839-2.781-1.02-3.081-1.425-.261-.352-.425-.941-1.006-3.306a85.042 85.042 0 00-.853-3.276c-.694 1.325-1.665 3.579-2.421 5.575a1.067 1.067 0 01-.598.609c-2.461.981-5.253 2.232-6.717 3.051z" fill="#241726"/></g><g><path d="M111.723 435.451s.418-9.548-10.167-19.872-31.734-1.243-31.734-1.243c1.822 23.663 15.147 36.536 39.467 26.306 0 0-3.307 15.014 6.623 20.158 0 0 6.398-15.025.287-20.003 0 0 7.913.788 15.957-11.516 0 .001-8.116-6.242-20.433 6.17z" fill="#52afa6"/><path d="M84.861 436.083a1.06 1.06 0 01-.629-1.914c9.459-6.968 6.353-18.443 6.214-18.928a1.064 1.064 0 01.731-1.309 1.063 1.063 0 011.309.728c.039.133 3.663 13.364-6.995 21.215a1.055 1.055 0 01-.63.208zM81.549 421.697c-.501 0-.965-.192-1.332-.552-1.75-1.729-.919-6.174-.735-7.048a1.06 1.06 0 112.075.437c-.416 1.982-.453 4.505.151 5.101.348-.129 1.783-1.783 2.775-3.459a1.06 1.06 0 011.827 1.08c-.578.976-2.609 4.179-4.504 4.424a1.87 1.87 0 01-.257.017zM75.753 424.193c-4.127 0-5.633-2.37-5.85-3.684a1.061 1.061 0 012.09-.365c.048.23.596 2.094 4.264 1.914.648-.062 1.085.417 1.116 1a1.058 1.058 0 01-1 1.116 10.23 10.23 0 01-.62.019zM97.772 442.445c-2.725 0-5.925-1.786-6.399-2.059a1.058 1.058 0 01-.387-1.447 1.056 1.056 0 011.447-.389c2.013 1.159 5.494 2.422 6.571 1.433.104-.095.172-.205.174-.432 0-1.239-1.928-3.566-3.295-4.823a1.062 1.062 0 01-.211-1.294 1.063 1.063 0 011.209-.508c3.342.92 6.428.96 6.749.377.008-.668-2.475-2.561-5.115-3.867a1.06 1.06 0 01.653-1.995c1.485.256 5.614.518 6.896-1.353.155-.227.135-.34.095-.445-.406-1.103-3.558-2.424-5.562-2.971a1.06 1.06 0 01.557-2.045c1.006.273 6.067 1.763 6.995 4.283.294.803.18 1.625-.333 2.375-1.079 1.576-3.007 2.189-4.808 2.386 1.199.88 2.307 1.929 2.628 2.964.186.599.135 1.187-.151 1.7-.895 1.607-3.593 1.639-5.912 1.316.903 1.192 1.727 2.629 1.727 3.902-.002.789-.298 1.479-.861 1.994-.718.654-1.661.898-2.667.898z" fill="#241726"/></g><g><path d="M359.009 39.606s4.936-8.184 19.466-10.924 27.119 16.528 27.119 16.528c-14.613 18.7-32.836 22.048-47.43.068 0 0-5.555 14.335-16.672 13.124 0 0 2.987-16.055 10.831-16.819 0 0-7.027-3.723-6.917-18.423-.001-.001 10.213-.708 13.603 16.446z" fill="#52afa6"/><path d="M381.619 55.177a1.06 1.06 0 01-.996-.698c-4.531-12.44 5.811-21.452 5.916-21.542a1.063 1.063 0 011.493.118 1.062 1.062 0 01-.116 1.494c-.383.328-9.323 8.166-5.301 19.205a1.058 1.058 0 01-.996 1.423zM392.784 45.163c-.453 0-.882-.16-1.238-.47-1.441-1.252-1.361-5.044-1.3-6.177.029-.584.468-1.042 1.114-1.002.584.03 1.033.528 1.002 1.113-.099 1.947.18 4.117.576 4.466.656-.21 2.021-2.334 2.771-4.214a1.06 1.06 0 011.971.784c-.331.83-2.1 4.993-4.514 5.464a2.074 2.074 0 01-.382.036zM399.094 51.468c-1.218 0-2.713-.432-4.4-1.69a1.06 1.06 0 011.268-1.7c2.984 2.227 4.454.923 4.614.766a1.073 1.073 0 011.491-.013c.414.403.437 1.053.046 1.474-.52.554-1.574 1.163-3.019 1.163zM373.294 54.98l-.066-.002c-.748-.047-7.328-.559-8.192-4.049-.184-.74-.05-1.48.387-2.137.704-1.061 2.187-1.803 3.597-2.295-2.11-1.017-4.34-2.536-4.195-4.368.046-.585.327-1.104.814-1.499.843-.684 2.344-.945 3.831-1.015-1.394-1.161-2.659-2.739-2.684-4.648-.012-.909.346-1.657 1.035-2.162 2.166-1.582 7.21-.028 8.196.301.557.185.857.785.673 1.34a1.067 1.067 0 01-1.34.673c-1.971-.652-5.328-1.297-6.277-.603-.091.066-.172.148-.168.422.029 2.27 3.616 4.337 4.993 4.943a1.06 1.06 0 01-.557 2.023c-3.208-.406-6.08-.11-6.413.416-.05.716 2.839 2.411 5.84 3.395a1.06 1.06 0 01-.163 2.054c-1.839.292-4.734 1.166-5.415 2.195-.126.188-.128.318-.095.455.352 1.42 3.947 2.297 6.266 2.442a1.06 1.06 0 01-.067 2.119z" fill="#241726"/></g><g><path d="M470.329 135.625c-37.228 24.604-74.563-28.282-38.929-55.126 37.227-24.603 74.562 28.283 38.929 55.126z" fill="#b388aa"/><path d="M485.136 107.429s26.067 12.509 12.977 21.247c-9.986 6.666-87.469-14.764-96.684-28.531-9.215-13.767 21.923-13.455 21.923-13.455l-2.148 5.572s-13.331-.216-9.947 6.011c-2.772 4.249 111.481 37.257 72.925 16.419l.954-7.263z" fill="#fff"/><path d="M491.151 130.989c-21.507.002-82.117-17.579-90.601-30.254-2.021-3.018-2.423-5.714-1.195-8.014 2.976-6.287 22.216-8.056 24.785-6.632.199.289.325.655.201.982l-2.147 5.571c-.16.418-.568.688-1.013.679-3.837 0-8.25.744-9.221 2.378-.116.194-.466.784.23 2.066.975 1.795 11.147 6.31 36.767 13.594 18.343 5.215 36.164 9.415 38.688 9.415 3.065-.082 3.562-.585 3.582-.607-.244-.646-3.711-2.846-7.473-4.506a1.062 1.062 0 01-.623-1.108l.953-7.262a1.064 1.064 0 011.512-.818c.679.326 16.67 8.088 17.239 16.161.024 5.584-5.073 8.698-11.684 8.355zM421.8 87.769c-7.258.17-18.231 1.562-20.575 5.951-.843 1.577-.487 3.485 1.085 5.834 7.92 10.959 73.038 33.395 95.215 28.238 2.28-1.522 3.326-3.16 3.195-5.009-.367-5.181-9.78-11.144-14.727-13.737l-.656 5c4.024 1.838 8.366 4.382 7.919 6.647-.356 1.816-2.99 2.131-5.521 2.199-4.347 0-73.54-16.997-77.408-24.115-1.052-1.935-.683-3.332-.188-4.162 1.737-2.923 7.776-3.36 10.337-3.41l1.324-3.436z" fill="#241726"/><path d="M472.507 88.47s2.826 2.566 2.359 4.417" fill="#fff"/><path d="M474.866 93.947a1.059 1.059 0 01-1.027-1.32c.201-.8-1.058-2.473-2.046-3.373-1.029-.91.426-2.506 1.427-1.569.551.5 3.268 3.112 2.673 5.462-.12.48-.553.8-1.027.8z" fill="#241726"/><path d="M471.066 96.837s2.826 2.566 2.359 4.417" fill="#fff"/><path d="M473.425 102.314a1.059 1.059 0 01-1.027-1.32c.201-.8-1.058-2.473-2.046-3.373a1.06 1.06 0 011.427-1.568c.551.5 3.268 3.112 2.673 5.462a1.06 1.06 0 01-1.027.799z" fill="#241726"/><g><path d="M478.414 101.112s2.335 3.019 1.553 4.76" fill="#fff"/><path d="M479.966 106.933a1.06 1.06 0 01-.967-1.495c.338-.752-.611-2.619-1.425-3.677a1.061 1.061 0 011.678-1.298c.456.589 2.675 3.635 1.681 5.844a1.06 1.06 0 01-.967.626z" fill="#241726"/></g><g><path d="M463.763 90.083s2.826 2.566 2.359 4.417" fill="#fff"/><path d="M466.121 95.56a1.06 1.06 0 01-1.027-1.32c.201-.799-1.058-2.473-2.046-3.373a1.06 1.06 0 011.427-1.568c.551.5 3.268 3.113 2.673 5.462a1.06 1.06 0 01-1.027.799z" fill="#241726"/></g><g><path d="M463.213 82.387s3.331 1.864 3.292 3.772" fill="#fff"/><path d="M466.504 87.22h-.023a1.06 1.06 0 01-1.037-1.082c.017-.83-1.584-2.174-2.748-2.827a1.06 1.06 0 111.035-1.849c.648.362 3.883 2.298 3.833 4.719a1.06 1.06 0 01-1.06 1.039z" fill="#241726"/></g></g><g><path d="M235.056 223.01s73.568-24.352 100.573-45.841c27.005-21.489 31.539 29.22.041 46.736l24.484 29.654s39.27-29.325 51.252-18.731.237 26.896-51.385 62.645-127.012 30.471-156.077-4.567 31.112-69.896 31.112-69.896z" fill="#e8800a"/><path d="M320.776 186.927c6.478 13.58 2.018 13.102-9.653 9.206 0 0 3.411 17.762-1.964 15.194s-12.048-12.413-12.048-12.413l23.665-11.987zM286.736 247.673s40.933 34.006 30.102 36.991-32.404-8.443-38.881-28.915 4.736-7.828 8.779-8.076z" fill="#d45a41"/><path d="M259.799 302.927c30.222-71.522 74.698-27.704 99.854 11.566 1.628 3.44-40.245-9.565-40.245-9.565l-4.288 10.886-55.321-12.887zM225.517 413.384s-8.512 45.846 6.162 54.15c14.674 8.304 75.13 1.046 72.796-2.351-2.333-3.397-29.391-17.313-29.391-17.313l6.057-16.66-55.624-17.826z" fill="#b388aa"/><path d="M321.201 410.382c-.072 0-.145-.007-.215-.022l-31.561-6.557a1.06 1.06 0 01-.818-1.279l15.676-67.531c.075-.316.288-.581.582-.72.292-.139.634-.135.926.011l27.763 13.873c.427.213.659.685.565 1.153l-11.878 60.215a1.053 1.053 0 01-.454.678 1.042 1.042 0 01-.586.179zm-30.283-8.434l29.451 6.118 11.514-58.372-25.837-12.911-15.128 65.165z" fill="#241726"/><path d="M309.682 229.266s40.933 34.006 30.102 36.991-32.404-8.443-38.881-28.915c-6.477-20.472 4.736-7.827 8.779-8.076z" fill="#d45a41"/><path d="M140.259 269.804s-47.94 23.661-34.542 51.518 65.54-33.134 86.933-30.731-9.092-33.54-52.391-20.787z" fill="#e8800a"/><path d="M271.258 171.037s-15.349-50.393-25.596-46.263c-10.247 4.13-30.321 28.7-30.321 28.7l-43.284-11.34s-5.183-46.351-16.521-40.987c-210.278 173.645 163.472 275.527 115.722 69.89z" fill="#e8800a"/><path d="M156.115 139.03s-1.822-29.64-6.767-24.669-13.493 17.748-13.493 17.748l20.26 6.921zM247.26 160.262s-3.173-23.14-7.098-20.565c-3.925 2.575-14.146 16.621-14.146 16.621l21.244 3.944z" fill="#e5999e"/><path d="M172.057 142.134s-16.382 25.302-7.736 23.603c8.646-1.698 13.293-10.093 13.293-10.093-9.328 37.74 14.139 7.74 19.166.561 0 0-6.415 18.953.488 17.362 6.903-1.591 14.768-21.197 14.768-21.197l-39.979-10.236zM273.375 195.992s-39.27 6.498-32.046 10.138c7.224 3.639 30.819 17.356 30.819 17.356s-29.202-.538-29.604 2.404 16.978 19.958 16.978 19.958c-35.365-6.417-34.918-2.805-9.935 18.695.001 0 34.426-28.369 23.788-68.551zM107.027 156.633c26.349 7.867 6.709 11.587-4.99 13.724 0 0 18.543 16.945 14.511 17.776-4.033.831-22.952-3.256-22.952-3.256s14.877 14.253 12.114 16.756-15.053 2.282-15.053 2.282 1.106-30.238 16.37-47.282z" fill="#d45a41"/><path d="M290.66 436.289l24.46-120.475c-328.397-89.84-304.754 45.801-24.46 120.475z" fill="#fff"/><path d="M290.659 437.349c-.097 0-.195-.013-.29-.04-23.895-5.213-237.854-74.548-216.701-126.611 22.858-63.131 245.634 6.885 241.743 4.097.532.152.857.688.748 1.23L291.699 436.5c-.06.289-.236.54-.489.695a1.069 1.069 0 01-.551.154zm-152.196-150.67c-37.419 0-58.529 8.26-62.741 24.549-14.477 55.97 196.874 118.707 214.127 123.723l24.036-118.385c-10.652-2.985-108.503-29.887-175.422-29.887z" fill="#241726"/><path d="M150.132 182.072c.371 12.146-17.225 13.225-18.343 1.128-.371-12.146 17.225-13.225 18.343-1.128zM206.358 187.262c.371 12.146-17.225 13.225-18.343 1.128-.371-12.146 17.225-13.225 18.343-1.128z" fill="#1a1f36"/><path d="M148.856 280.891s-.411 79.694-25.492 95.045c0 0-48.807-33.646-61.309-64.214s86.801-30.831 86.801-30.831z" fill="#b388aa"/><path d="M350.15 363.231s24.007-25.554 49.489-27.12 61.789 42.94 57.098 44.644c-4.691 1.705-36.63 2.252-36.63 2.252s49.513 25.282 41.811 30.005c-7.703 4.723-47.171 12.815-47.171 12.815s24.843 14.052 20.152 15.757c-43.443 33.825-130.207-18.574-84.749-78.353z" fill="#d45a41"/><path d="M238.723 337.65c-4.738-51.193-79.18-46.603-77.604 4.772 4.738 51.192 79.18 46.603 77.604-4.772z" fill="#1a1f36"/><path d="M226.442 339.468c-3.058-33.042-51.107-30.08-50.09 3.08 3.058 33.042 51.107 30.08 50.09-3.08z" fill="#52afa6"/><path d="M276.867 384.733s-31.626-30.631-19.85-34.896c11.777-4.265 29.599-13.859 39.117-8.779 9.518 5.08 31.973 36.275 31.973 36.275s-39.214 18.699-51.24 7.4z" fill="#b388aa"/><path d="M194.995 282.657s-47.94 23.661-34.542 51.518 57.448-41.773 78.841-39.37c21.392 2.402-1-24.901-44.299-12.148zM341.835 232.024s57.243-13.434 49.627-68.202-60.432-15.058-75.404-28.864c-17.045-15.718 22.432-65.187 77.588-20.423s23.84 127.002-48.381 127.193l-3.43-9.704z" fill="#e8800a"/><path d="M187.942 283.459c-3.158 0-6.364-.133-9.528-.393C27.845 265.155 46.302 48.245 197.217 55.162c62.834 5.184 109.735 60.52 104.55 123.353-4.854 58.847-54.851 104.944-113.825 104.944zM187.69 56.89c-142.245 4.228-150.852 208.488-9.101 224.061 148.207 6.775 166.143-206.167 18.455-223.675a114.36 114.36 0 00-9.354-.386z" fill="#241726"/><path d="M164.174 84.705a1.06 1.06 0 01-.631-1.913c28.939-21.42 57.696-.58 57.986-.368.47.348.569 1.012.22 1.482a1.06 1.06 0 01-1.483.222c-.275-.203-27.806-20.102-55.46.369a1.06 1.06 0 01-.632.208zM239.898 94.468c-.294 0-.586-.122-.797-.36-2.657-3.025-10.683-6.285-10.764-6.317a1.059 1.059 0 11.791-1.967c.35.141 8.579 3.484 11.567 6.884a1.062 1.062 0 01-.797 1.76z" fill="#241726"/><path d="M175.311 263.09s39.764.348 41.186-33.534c2.369-56.458-57.032-18.037-57.032-18.037s-38.629-38.611-47.3 2.489c-11.709 55.501 63.146 49.082 63.146 49.082z" fill="#fdffff"/><path d="M159.589 244.631c-1.356 0-2.669-.434-3.924-1.298-11.147-7.682-15.545-26.742-15.728-27.55a1.06 1.06 0 112.068-.466c.043.189 4.402 19.062 14.864 26.27 1.363.94 2.754 1.155 4.251.663 8.476-2.798 16.413-25.731 16.494-25.962a1.06 1.06 0 112.005.687c-.335.985-8.364 24.162-17.834 27.289a7.008 7.008 0 01-2.196.367z" fill="#241726"/><path d="M171.716 204.748s-11.11-11.748-24.693-3.994c-3.198 1.826 8.237 17.085 11.964 15.434 3.727-1.651 12.729-11.44 12.729-11.44z" fill="#1a1f36"/><path d="M160.161 243.228c-.538 0-1-.411-1.054-.96l-2.485-25.989a1.059 1.059 0 01.955-1.155 1.056 1.056 0 011.158.955l2.485 25.989a1.059 1.059 0 01-1.059 1.16zM204.376 219.243a1.06 1.06 0 01-.992-.688c-.207-.549.07-1.16.619-1.366l23.824-8.935a1.063 1.063 0 011.365.62c.207.549-.07 1.16-.619 1.366l-23.824 8.935a1.063 1.063 0 01-.373.068zM231.182 230.328a1.02 1.02 0 01-.174-.014l-26.556-4.385c-1.364-.2-1.002-2.348.344-2.091l26.556 4.385a1.06 1.06 0 01-.17 2.105zM126.446 216.762c-.234 0-.468-.077-.665-.234L108.49 202.63a1.062 1.062 0 01-.162-1.491 1.063 1.063 0 011.491-.162l17.291 13.898a1.062 1.062 0 01-.664 1.887zM123.8 223.793c-.06 0-.122-.005-.182-.016l-23.41-4.054a1.059 1.059 0 01-.864-1.226 1.062 1.062 0 011.224-.864l23.41 4.054a1.06 1.06 0 01-.178 2.106z" fill="#241726"/><path d="M150.039 204.707a1.06 1.06 0 01-.764-1.796c3.326-3.452 8.291-1.345 8.503-1.253.536.233.781.855.549 1.392a1.067 1.067 0 01-1.392.554c-.037-.017-3.839-1.604-6.132.78a1.067 1.067 0 01-.764.323z" fill="#fbfcff"/><path d="M160.455 335.236a1.06 1.06 0 01-1.056-1.169c.936-9.075 12.091-16.371 12.566-16.676a1.06 1.06 0 011.151 1.781c-.108.069-10.776 7.053-11.609 15.113a1.06 1.06 0 01-1.052.951zM165.665 339.488a1.07 1.07 0 01-1.044-1.268c.464-2.507 10.493-9.63 14.781-12.577a1.061 1.061 0 011.201 1.747c-6.345 4.358-13.464 9.895-13.903 11.24a1.047 1.047 0 01-1.035.858z" fill="#241726"/><path d="M197.117 321.987s-5.721-17.62-3.989-17.726c1.733-.107 17.069 4.168 17.069 4.168s-6.512-21.05-1.749-19.024 16.269 10.015 16.269 10.015-20.776 20.409-27.6 22.567z" fill="#d45a41"/><path d="M219.346 344.625a1.061 1.061 0 01-1.011-1.384c3.123-9.767-8.202-17.904-8.316-17.985a1.062 1.062 0 011.221-1.734c.52.367 12.713 9.108 9.116 20.364a1.061 1.061 0 01-1.01.739zM215.941 355.27a1.061 1.061 0 01-.729-1.83c.814-.771 2.901-3.201 2.781-5.153a1.06 1.06 0 01.992-1.123c.63-.022 1.087.41 1.124.993.207 3.345-3.293 6.684-3.442 6.825a1.061 1.061 0 01-.726.288z" fill="#fbfcff"/><path d="M340.482 184.373a1.06 1.06 0 01-1.054-1.185c.822-6.916 7.805-10.419 8.101-10.564a1.06 1.06 0 01.935 1.904c-.062.03-6.248 3.153-6.933 8.912a1.059 1.059 0 01-1.049.933zM347.84 190.877a1.06 1.06 0 01-1.04-1.281c.391-1.835 2.489-11.091 5.467-13.137a1.062 1.062 0 011.474.273 1.06 1.06 0 01-.273 1.474c-1.771 1.216-3.756 7.902-4.593 11.83-.105.5-.546.841-1.035.841zM403.72 251.212a1.059 1.059 0 01-.122-2.113c4.682-.551 10-2.071 10.457-3.455a1.05 1.05 0 011.34-.674c.555.183.857.783.673 1.339-1.104 3.341-9.633 4.593-12.222 4.896a1.368 1.368 0 01-.126.007zM400.517 246.191a1.059 1.059 0 01-.594-1.939c5.628-3.8 10.414-8.014 10.451-9.203-.149-.565.19-1.12.756-1.27.584-.16 1.151.212 1.303.778.748 2.809-6.774 8.382-11.321 11.454-.183.121-.39.18-.595.18z" fill="#241726"/><path d="M375.502 102.316s5.047 6.647 4.718 10.725c-.329 4.078-9.357 8.112-8.637 10.387.72 2.275 12.99 3.839 4.247 12.493 0 0-8.983-4.665-35.266 1.589-67.713 11.446-11.023-68.392 34.938-35.194zM391.682 271.183s-15.726-10.628-15.442-6.007c.284 4.62 1.394 13.248 1.394 13.248s-11.942-5.643-13.026-4.417c-1.084 1.226.665 20.25.665 20.25s24.961-18.348 26.409-23.074z" fill="#d45a41"/><path d="M216.393 412.253a1.06 1.06 0 01-.695-1.86c30.61-26.603 41.188-107.06 41.291-107.869.075-.582.611-.98 1.187-.917.58.075.992.606.917 1.187-.027.204-2.678 20.684-9.126 44.221-8.685 31.705-19.747 53.568-32.878 64.98-.201.172-.45.258-.696.258zM311.489 275.443c-.319 0-.636-.145-.845-.419-2.51-3.308-5.978-1.999-6.016-1.987-1.273.524-2.061-1.496-.77-1.976 1.715-.667 5.699-.976 8.476 2.681a1.061 1.061 0 01-.845 1.701zM304.478 279.426a1.06 1.06 0 01-.845-.419 5.303 5.303 0 00-6.02-1.985 1.06 1.06 0 01-.766-1.978c1.715-.67 5.697-.973 8.476 2.681a1.06 1.06 0 01-.845 1.701zM317.778 282.314c-.319 0-.636-.145-.845-.419-2.51-3.308-5.978-2.001-6.016-1.987a1.06 1.06 0 11-.77-1.976c1.715-.667 5.699-.974 8.476 2.681a1.061 1.061 0 01-.845 1.701zM249.455 464.633c-1.389 0-2.947-.399-4.502-1.52a1.06 1.06 0 111.239-1.721 5.324 5.324 0 006.332.141 1.06 1.06 0 011.317 1.663c-.843.665-2.454 1.437-4.386 1.437zM245.889 458.478c-1.389 0-2.945-.398-4.502-1.52a1.059 1.059 0 01-.24-1.481 1.058 1.058 0 011.479-.24 5.32 5.32 0 006.335.142 1.062 1.062 0 011.491.174c.362.46.284 1.126-.174 1.489-.844.666-2.455 1.436-4.389 1.436zM238.838 464.755c-1.389 0-2.945-.399-4.502-1.52a1.06 1.06 0 111.239-1.721 5.315 5.315 0 006.335.141 1.06 1.06 0 011.317 1.663c-.844.666-2.455 1.437-4.389 1.437zM117.125 290.935a1.06 1.06 0 01-.679-1.875c1.421-1.18 5.1-2.728 8.89-.138.482.33.607.99.277 1.473-.329.486-.99.607-1.474.276a5.319 5.319 0 00-6.335.018 1.05 1.05 0 01-.679.246zM111.76 298.701a1.06 1.06 0 01-.679-1.875c1.418-1.18 5.102-2.727 8.89-.138.482.33.607.99.277 1.473a1.057 1.057 0 01-1.474.276 5.319 5.319 0 00-6.335.018 1.058 1.058 0 01-.679.246zM103.433 292.84a1.06 1.06 0 01-.679-1.875c1.418-1.18 5.102-2.727 8.89-.138.482.33.607.99.277 1.473a1.054 1.054 0 01-1.474.276 5.319 5.319 0 00-6.335.018 1.056 1.056 0 01-.679.246zM96.913 299.083a1.06 1.06 0 01-.679-1.875c1.418-1.179 5.102-2.727 8.89-.138a1.06 1.06 0 11-1.197 1.749c-3.427-2.339-6.306-.005-6.335.018a1.06 1.06 0 01-.679.246zM86.501 293.881a1.06 1.06 0 01-.679-1.875c1.418-1.179 5.1-2.728 8.89-.138.482.33.607.99.277 1.473a1.058 1.058 0 01-1.474.276c-3.425-2.339-6.306-.004-6.335.018a1.06 1.06 0 01-.679.246zM123.735 294.778a1.06 1.06 0 01-.679-1.875c1.418-1.18 5.102-2.727 8.89-.138.482.33.607.99.277 1.473a1.057 1.057 0 01-1.474.276 5.319 5.319 0 00-6.335.018 1.056 1.056 0 01-.679.246zM296.292 349.72c-.319 0-.636-.145-.845-.419-2.508-3.307-5.978-2-6.016-1.987a1.06 1.06 0 11-.77-1.976c1.715-.666 5.701-.975 8.476 2.681a1.061 1.061 0 01-.845 1.701zM287.541 353.036a1.06 1.06 0 01-.845-.419c-2.508-3.307-5.978-2-6.016-1.987a1.057 1.057 0 01-1.373-.603 1.06 1.06 0 01.603-1.373c1.715-.669 5.701-.974 8.476 2.681a1.061 1.061 0 01-.845 1.701zM298.727 356.672c-.319 0-.636-.145-.845-.419a5.32 5.32 0 00-6.016-1.987c-1.273.521-2.06-1.495-.77-1.976 1.717-.669 5.703-.972 8.476 2.681a1.061 1.061 0 01-.845 1.701zM305.911 358.845c-.468 0-.897-.311-1.023-.784a5.323 5.323 0 00-4.829-4.102 1.06 1.06 0 01.029-2.121c1.845.024 5.649 1.24 6.846 5.67a1.06 1.06 0 01-1.023 1.337z" fill="#241726"/><path d="M416.12 145.873s-13.827 9.07-10.965 9.665c2.862.595 12.452 6.17 12.452 6.17s-16.898 9.259-12.709 10.543c4.189 1.284 15.377 7.788 16.114 7.229.736-.56 3.875-20.532-4.892-33.607zM390.055 189.86s10.114 9.91 10.464 11.43c.35 1.52-13.661 3.409-13.661 3.409s6.61 11.41 4.401 13.087-18.567-1.17-18.614-1.938c-.048-.769 12.181-10.768 17.41-25.988z" fill="#d45a41"/><path d="M152.02 136.141a1.061 1.061 0 01-1.038-1.286c1.033-4.748 1.493-9.395 1.098-10.744-2.574 1.907-3.51 6.88-3.667 8.692a1.06 1.06 0 01-1.019.968c-.516-.006-1-.363-1.085-.893-.422-2.646-1.404-5.353-2.021-5.569-1.777 1.427-1.576 5.464-1.356 6.907a1.059 1.059 0 11-2.095.32c-.101-.654-.897-6.463 2.031-8.793.928-.738 1.771-.575 2.189-.41.94.364 1.648 1.483 2.17 2.755.677-2.168 1.826-4.559 3.742-5.816 1.089-.715 1.876-.393 2.245-.137 1.947 1.338.988 7.901-.159 13.17a1.061 1.061 0 01-1.035.836zM244.303 159.944a1.057 1.057 0 01-.983-1.454c.723-1.812 1.474-4.736 1.066-6.029-.661.534-1.872 2.236-2.779 3.954a1.06 1.06 0 01-1.965-.756c.451-1.78 1.288-7.187-.723-8.635-1.298.386-2.847 4.961-3.591 8.951a1.059 1.059 0 11-2.083-.387c.41-2.206 1.959-9.494 4.707-10.595.735-.297 1.52-.184 2.205.311 1.808 1.301 2.226 3.888 2.176 6.221.714-.773 1.479-1.32 2.21-1.335.654-.005 1.209.328 1.561.939 1.377 2.377-.439 7.205-.818 8.15a1.059 1.059 0 01-.983.665z" fill="#241726"/><g><path d="M355.343 383.477s4.994-16.898 21.933-16.129c16.939.768 32.13 22.156 27.941 22.715-4.189.559-17.994 1.71-17.994 1.71s14.678 8.147 16.028 10.477c1.35 2.33-18.507 8.076-18.507 8.076s13.74 7.601 8.441 9.737c-5.297 2.135-46.554-1.663-37.842-36.586z" fill="#e3b800"/></g></g><g><path d="M225.181 511.864c-.979 0-1.965-.054-2.93-.159a1.06 1.06 0 01.232-2.108c.905.099 1.855.141 2.752.147.352 0 .704-.008 1.058-.023l.282-.01c.632-.004 1.071.449 1.085 1.035a1.06 1.06 0 01-1.035 1.085l-.23.008c-.423.019-.808.036-1.214.025zm5.624-.441c-.514 0-.967-.375-1.046-.901a1.058 1.058 0 01.888-1.207 32.04 32.04 0 004.001-.87 1.06 1.06 0 11.584 2.038 34.155 34.155 0 01-4.266.928 1.08 1.08 0 01-.161.012zm-12.586-.546c-.101 0-.203-.014-.304-.046a22.79 22.79 0 01-4.106-1.68 1.058 1.058 0 01-.439-1.433 1.058 1.058 0 011.433-.441 20.545 20.545 0 003.721 1.524 1.06 1.06 0 01-.305 2.076zm20.689-1.821a1.06 1.06 0 01-.443-2.023 24.17 24.17 0 003.527-1.992 1.064 1.064 0 011.474.276 1.062 1.062 0 01-.277 1.473 26.188 26.188 0 01-3.837 2.168 1.045 1.045 0 01-.444.098zm-28.127-2.121c-.236 0-.472-.078-.669-.237a24.767 24.767 0 01-3.166-3.088 1.06 1.06 0 111.607-1.383 22.679 22.679 0 002.897 2.825 1.06 1.06 0 01-.669 1.883zm35.079-2.642a1.059 1.059 0 01-.741-1.817 23.89 23.89 0 002.638-3.076 1.06 1.06 0 111.719 1.239 25.95 25.95 0 01-2.874 3.352 1.062 1.062 0 01-.742.302zm-40.6-3.741c-.356 0-.702-.179-.903-.505a30.752 30.752 0 01-2.021-3.894 1.062 1.062 0 011.947-.843 28.697 28.697 0 001.88 3.627 1.06 1.06 0 01-.903 1.615zm45.555-3.097a1.062 1.062 0 01-.946-1.539 29.033 29.033 0 001.58-3.775 1.06 1.06 0 012.009.681 31.366 31.366 0 01-1.696 4.05 1.06 1.06 0 01-.947.583zm-62.693-.614a18.592 18.592 0 01-3.247-.284 1.059 1.059 0 01-.857-1.229 1.059 1.059 0 011.23-.858c1.276.227 2.62.298 3.974.216.58-.018 1.085.41 1.122.993a1.06 1.06 0 01-.994 1.123 20.04 20.04 0 01-1.228.039zm5.337-.746a1.062 1.062 0 01-.28-2.084 23.626 23.626 0 003.8-1.412 1.057 1.057 0 011.41.509c.251.53.021 1.162-.507 1.41a25.936 25.936 0 01-4.144 1.539 1.041 1.041 0 01-.279.038zm-12.433-.777c-.147 0-.296-.03-.439-.095a19.486 19.486 0 01-3.827-2.322 1.06 1.06 0 111.296-1.677 17.346 17.346 0 003.409 2.07 1.06 1.06 0 01-.439 2.024zm20.857-2.519a1.06 1.06 0 01-.7-.264 1.06 1.06 0 01-.689-1.912 34.328 34.328 0 01-.559-2.869 1.061 1.061 0 01.89-1.207c.551-.071 1.118.311 1.205.89.093.613.205 1.227.333 1.838.485-.378.957-.771 1.414-1.177a1.06 1.06 0 111.408 1.586 31.548 31.548 0 01-2.268 1.831 1.06 1.06 0 01-1.034 1.284zm-27.552-2.586c-.298 0-.596-.126-.808-.372-.903-1.059-1.739-2.306-2.485-3.706a1.062 1.062 0 011.872-.998c.673 1.265 1.423 2.385 2.228 3.327a1.062 1.062 0 01-.807 1.749zm79.232-.769a1.061 1.061 0 01-1.041-1.272c.387-1.91.507-3.364.545-4.061.031-.583.551-1.046 1.114-1.003a1.06 1.06 0 011.002 1.115c-.039.755-.168 2.327-.582 4.371-.102.503-.545.85-1.038.85zm-46.114-2.523a1.058 1.058 0 01-.811-1.742c.926-1.105 1.7-2.219 2.299-3.31a1.06 1.06 0 011.859 1.021c-.665 1.212-1.518 2.441-2.535 3.652-.209.25-.51.379-.812.379zm-6.803-3.554h-1.06c-.002-1.66.128-3.107.389-4.423a1.065 1.065 0 011.245-.836c.576.114.948.672.835 1.246-.232 1.181-.35 2.489-.348 3.889l-1.061.124zm-30.37-.553c-.437 0-.845-.27-.998-.705a39.752 39.752 0 01-1.224-4.182 1.06 1.06 0 112.063-.487 38.032 38.032 0 001.158 3.958 1.059 1.059 0 01-.999 1.416zm41.002-3.348a1.06 1.06 0 01-1.054-1.191c.027-.216.041-.428.039-.634 0-1.001-.306-1.746-.938-2.285a1.06 1.06 0 011.375-1.613c1.102.94 1.684 2.285 1.684 3.89.002.289-.017.593-.056.905a1.06 1.06 0 01-1.05.928zm-8.762-3.194a1.06 1.06 0 01-.876-1.656c1.125-1.654 2.65-2.492 4.407-2.407.58.04 1.056.54 1.023 1.119-.031.579-.48 1.044-1.062 1.001-.012 0-.11-.007-.112-.006-1.021 0-1.833.5-2.504 1.486a1.06 1.06 0 01-.876.463zm-34.215-1.697c-.518 0-.971-.381-1.048-.91a52.098 52.098 0 01-.391-3.676l-.008.004a35.093 35.093 0 01-4.011 1.734 1.064 1.064 0 01-1.356-.636 1.058 1.058 0 01.636-1.358 32.858 32.858 0 003.767-1.629 1.062 1.062 0 011.354.342c.162-.121.358-.197.574-.209a1.068 1.068 0 011.12.996c.081 1.374.22 2.763.416 4.131a1.061 1.061 0 01-1.053 1.211zm-21.547-.204l-.961-.008a1.06 1.06 0 11.033-2.121l.932.008c1.1 0 2.176-.033 3.226-.097.588-.017 1.085.41 1.122.994a1.06 1.06 0 01-.994 1.122c-1.09.067-2.208.102-3.358.102zm-5.168-.287c-.046 0-.093-.003-.139-.009a25.704 25.704 0 01-4.316-.923c-1.317-.389-.684-2.452.63-2.025a23.7 23.7 0 003.959.846 1.06 1.06 0 01-.134 2.111zm12.677-.251c-.516 0-.969-.378-1.046-.905a1.059 1.059 0 01.893-1.204 44.196 44.196 0 004.061-.795 1.048 1.048 0 011.284.776 1.06 1.06 0 01-.774 1.283 46.114 46.114 0 01-4.26.835c-.052.006-.106.01-.158.01zm-20.689-2.329a1.05 1.05 0 01-.54-.149 15.83 15.83 0 01-3.527-2.832c-.4-.429-.375-1.1.054-1.498a1.061 1.061 0 011.499.055 13.849 13.849 0 003.054 2.453 1.058 1.058 0 01-.54 1.971zm36.425-3.584a1.06 1.06 0 01-.617-1.923c1.168-.835 2.185-1.723 3.025-2.638a1.06 1.06 0 011.497-.065c1.355 1.517-2.185 3.391-3.288 4.428a1.051 1.051 0 01-.617.198zm-2.189-1.805h-.031a1.062 1.062 0 01-1.029-1.092 39.17 39.17 0 01.36-4.346 1.054 1.054 0 011.201-.898c.58.083.982.621.899 1.2a36.36 36.36 0 00-.34 4.107 1.06 1.06 0 01-1.06 1.029zm-39.925-.731c-.389 0-.764-.215-.948-.587a19.231 19.231 0 01-1.499-4.216 1.061 1.061 0 012.067-.483 17.105 17.105 0 001.329 3.752 1.06 1.06 0 01-.949 1.534zm47.626-3.767a1.058 1.058 0 01-.983-1.454c.259-.651.391-1.267.393-1.832 0-.505-.11-.964-.327-1.363a1.058 1.058 0 01.422-1.439 1.061 1.061 0 011.437.422c.391.713.588 1.516.588 2.382-.104.985-.117 3.161-1.53 3.284zm-6.345-3.839a1.06 1.06 0 01-.985-1.451c1.316-3 2.509-3.405 4.102-3.18.567.13.944.701.818 1.269-.126.569-.675.941-1.234.812a1.51 1.51 0 01-.178-.05c-.491.017-1.069.75-1.537 1.929a1.06 1.06 0 01-.986.671zm-43.279-.574a1.06 1.06 0 01-1.058-1.004 31.26 31.26 0 01-.046-1.695c.002-.922.041-1.82.108-2.682.043-.586.613-1.02 1.137-.976.584.045 1.021.554.977 1.138a31.314 31.314 0 00-.06 4.103 1.06 1.06 0 01-1.002 1.115l-.056.001zm.619-8.444a1.06 1.06 0 01-1.044-1.256c.476-2.536 1.023-4.192 1.046-4.262a1.06 1.06 0 012.013.67c-.006.016-.528 1.6-.975 3.983a1.06 1.06 0 01-1.04.865z" fill="#241726"/></g><g><path d="M273.519 53.432c-1.37.031-1.423-2.129-.041-2.119v1.06l.006-1.06c.354-.001.735-.097 1.164-.287.567-.254 1.048-.688 1.421-1.289a1.068 1.068 0 011.46-.342c.497.309.65.963.342 1.46-.603.97-1.398 1.679-2.363 2.109-.703.311-1.371.468-1.989.468zm-2.619-2.911c-.497 0-.942-.352-1.04-.859-.272-1.427-.237-3.006-.048-4.555a1.06 1.06 0 112.104.256c-.159 1.319-.204 2.69.027 3.896a1.061 1.061 0 01-1.043 1.262zm7.208-3.209l-.077-.002a1.062 1.062 0 01-.984-1.132c.088-1.335.006-2.571-.203-3.997a1.058 1.058 0 112.095-.317c.233 1.577.322 2.971.224 4.46a1.06 1.06 0 01-1.055.988zm-51.384-2.503c-.381 0-.75-.207-.94-.568-.714-1.588-.289-3.128.398-4.993a1.06 1.06 0 011.971.785c-.577 1.628-.765 2.281-.489 3.224a1.062 1.062 0 01-.94 1.552zm4.386-.397l-1.176-1.765.06-.038c.872-.546 1.576-1.469 2.085-2.739a1.059 1.059 0 111.967.789c-.679 1.694-1.667 2.957-2.936 3.753zm94.858-.899a1.06 1.06 0 01-.913-.521c-.008-.013-.832-1.401-2.336-3.425a1.06 1.06 0 011.703-1.266c1.576 2.123 2.425 3.551 2.46 3.611a1.06 1.06 0 01-.914 1.601zm-54.225-1.367a1.06 1.06 0 01-1.019-1.355 34.192 34.192 0 011.497-4.115 1.06 1.06 0 011.943.849 31.85 31.85 0 00-1.402 3.856c-.135.464-.56.765-1.019.765zm5.202-3.196a1.06 1.06 0 01-1.015-.752 34.406 34.406 0 00-1.435-3.857 1.02 1.02 0 01-.068-.216 1.06 1.06 0 01-.215-1.342 32.475 32.475 0 012.483-3.612 1.06 1.06 0 111.661 1.319 29.65 29.65 0 00-1.998 2.846c.029.048.056.097.081.15a36.852 36.852 0 011.522 4.095 1.062 1.062 0 01-1.016 1.369zm-43.007-1.758l-.072-.002a1.062 1.062 0 01-.988-1.129c.027-.414.041-.839.043-1.271 0-.712-.039-1.45-.116-2.194-.01.229-.095.456-.257.643a32.026 32.026 0 00-2.493 3.258 1.06 1.06 0 11-1.768-1.172 34.477 34.477 0 012.659-3.476 1.06 1.06 0 011.824.414l-.029-.232a1.061 1.061 0 01.917-1.186 1.07 1.07 0 011.187.918c.13 1.025.197 2.045.197 3.031-.002.481-.017.949-.048 1.407a1.06 1.06 0 01-1.056.991zm86.98-.517c-.298 0-.596-.125-.806-.371a56.459 56.459 0 00-2.825-3.065c-.985-.961.549-2.485 1.503-1.495a58.37 58.37 0 012.932 3.181 1.06 1.06 0 01-.804 1.75zm-135.587-2.753a1.06 1.06 0 01-.99-1.44c.344-.895.957-2.31 1.93-3.972a1.06 1.06 0 111.831 1.071 25.332 25.332 0 00-1.781 3.661 1.06 1.06 0 01-.99.68zm88.195-2.719c-.36 0-.714-.185-.913-.52a31.472 31.472 0 00-2.313-3.391 1.06 1.06 0 011.669-1.309 34.005 34.005 0 012.47 3.619 1.062 1.062 0 01-.913 1.601zm41.407-.542c-.244 0-.489-.084-.69-.255a44.48 44.48 0 00-3.268-2.545 1.064 1.064 0 01-.257-1.478c.34-.48.998-.59 1.479-.256a46.266 46.266 0 013.425 2.667 1.06 1.06 0 01-.689 1.867zm-80.243-.109a1.058 1.058 0 01-.724-1.833 49.286 49.286 0 013.29-2.819 1.063 1.063 0 011.489.18c.36.461.28 1.128-.18 1.489a47.554 47.554 0 00-3.15 2.697 1.058 1.058 0 01-.725.286zm-1.764-1.743c-.46 0-.882-.3-1.017-.763a26.79 26.79 0 00-1.437-3.814 1.06 1.06 0 111.921-.899 28.733 28.733 0 011.549 4.119 1.059 1.059 0 01-1.016 1.357zm47.477-1.029a1.06 1.06 0 01-.719-1.84 24.076 24.076 0 013.516-2.697 1.063 1.063 0 011.462.335c.311.496.159 1.15-.335 1.462a22.037 22.037 0 00-3.206 2.459 1.053 1.053 0 01-.718.281zm-90.821-1.176a1.063 1.063 0 01-.834-1.715 33.276 33.276 0 012.926-3.255 1.06 1.06 0 011.482 1.518 30.97 30.97 0 00-2.74 3.046 1.056 1.056 0 01-.834.406zm118.408-.797c-.174 0-.348-.042-.509-.13a31.477 31.477 0 00-3.713-1.738 1.06 1.06 0 01-.603-1.372 1.06 1.06 0 011.373-.604 33.793 33.793 0 013.961 1.854 1.06 1.06 0 01-.509 1.99zm-66.64-.49a1.06 1.06 0 01-.586-1.943 57.012 57.012 0 013.69-2.249 1.06 1.06 0 111.035 1.849 55.285 55.285 0 00-3.553 2.166 1.05 1.05 0 01-.586.177zm26.928-.747c-.259 0-.518-.094-.723-.285a21.084 21.084 0 00-3.189-2.464c-1.18-.713-.029-2.54 1.122-1.8A23.204 23.204 0 01269 22.734a1.061 1.061 0 01-.722 1.836zm19.283-1.231a1.059 1.059 0 01-.36-2.057 20.146 20.146 0 014.338-1.044 1.06 1.06 0 11.266 2.103 17.961 17.961 0 00-3.883.934c-.118.045-.24.064-.361.064zm12.537-.562c-.075 0-.153-.008-.23-.025a24.444 24.444 0 00-4.019-.55 1.06 1.06 0 01-1.004-1.114c.029-.585.553-1.041 1.112-1.004 1.454.076 2.924.276 4.371.597a1.062 1.062 0 01-.23 2.096zm-51.356-1.609a1.062 1.062 0 01-.45-2.021 20.718 20.718 0 014.218-1.454 1.062 1.062 0 01.459 2.071c-1.247.277-2.52.716-3.781 1.305a1.045 1.045 0 01-.446.099zm-19.411-.005c-.335 0-.667-.159-.872-.458a20.2 20.2 0 00-2.597-3.072 1.06 1.06 0 111.47-1.528c1.035.995 2 2.137 2.87 3.395a1.059 1.059 0 01-.871 1.663zm-33.704-.473a1.06 1.06 0 01-.642-1.904 36.524 36.524 0 013.628-2.425 1.061 1.061 0 111.073 1.829 34.665 34.665 0 00-3.417 2.284 1.065 1.065 0 01-.642.216zm65.476-.513c-.11 0-.222-.017-.331-.053a14.491 14.491 0 00-3.866-.714 1.06 1.06 0 01-1.011-1.107c.025-.582.462-1.048 1.106-1.012a16.6 16.6 0 014.434.818 1.06 1.06 0 01-.332 2.068zm-58.187-3.782a1.06 1.06 0 01-.435-2.027 43.978 43.978 0 014.046-1.576 1.06 1.06 0 11.671 2.011 42.016 42.016 0 00-3.848 1.499 1.06 1.06 0 01-.434.093zm20.314-1.026c-.182 0-.367-.047-.534-.144a14.635 14.635 0 00-3.636-1.514 1.06 1.06 0 11.542-2.05c1.447.383 2.847.965 4.162 1.731a1.06 1.06 0 01-.534 1.977zM210.936 13.7a1.06 1.06 0 01-.232-2.094 20.48 20.48 0 014.438-.513c1.377-.02 1.375 2.141 0 2.12a18.291 18.291 0 00-3.974.461 1.032 1.032 0 01-.232.026z" fill="#241726"/></g><g><path d="M351.339 481.019l4.885-7.263c5.396 1.571 21.186 7.221 32.307 21.906l-6.739 7.927c-3.825-4.507-17.688-19.918-30.453-22.57z" fill="#e6800d"/><path d="M356.225 473.756l2.003-5.51c22.046 1.764 35.44 21.374 35.44 21.374l-5.136 6.041c-11.121-14.685-26.911-20.334-32.307-21.905z" fill="#e17b8d"/><path d="M351.339 481.019c12.765 2.651 26.628 18.063 30.453 22.57l-7.15 8.411c-12.241-19.628-27.024-25.449-27.024-25.449l3.721-5.532z" fill="#b1739a"/><path d="M388.531 496.722c-.331 0-.659-.155-.866-.446-13.154-18.534-33.304-21.943-33.507-21.975a1.062 1.062 0 01-.88-1.215 1.054 1.054 0 011.216-.879c.859.138 21.238 3.589 34.903 22.841a1.061 1.061 0 01-.866 1.674z" fill="#241726"/><g><path d="M381.792 504.65c-.311 0-.621-.137-.83-.401-.172-.216-17.397-21.66-32.354-22.543a1.06 1.06 0 01-.996-1.12 1.067 1.067 0 011.12-.996c15.904.937 33.164 22.426 33.89 23.34a1.06 1.06 0 01-.83 1.72z" fill="#241726"/></g><g><path d="M350.712 463.049s-5.327-15.205-7.438-13.375c-2.111 1.83-7.642 14.091-7.642 14.091s-15.544 2.284-15.553 5.077c-.009 2.793 10.534 8.644 10.534 8.644-9.547 18.139 1.152 13.504 11.191 6.656 17.985 13.172 16.873 10.266 13.574-8.528 14.327-9.175 6.993-10.18-4.666-12.565z" fill="#e3b800"/></g></g><g><path d="M129.747 31.498l-4.885-7.263c-5.396 1.571-21.186 7.221-32.307 21.906l6.739 7.927c3.825-4.508 17.688-19.919 30.453-22.57z" fill="#e6800d"/><path d="M124.861 24.234l-2.003-5.51c-22.046 1.764-35.44 21.374-35.44 21.374l5.136 6.041c11.121-14.684 26.911-20.333 32.307-21.905z" fill="#e17b8d"/><path d="M129.747 31.498c-12.765 2.651-26.628 18.063-30.453 22.57l7.15 8.411c12.241-19.628 27.024-25.449 27.024-25.449l-3.721-5.532z" fill="#b1739a"/><path d="M92.554 47.2a1.063 1.063 0 01-.866-1.675c13.667-19.252 34.046-22.703 34.905-22.841a1.06 1.06 0 01.335 2.094c-.203.033-20.377 3.474-33.509 21.975a1.058 1.058 0 01-.865.447z" fill="#241726"/><g><path d="M99.294 55.128a1.061 1.061 0 01-.831-1.72c.727-.914 17.987-22.403 33.89-23.34 1.362-.086 1.504 2.051.124 2.116-14.968.882-32.182 22.326-32.354 22.543a1.053 1.053 0 01-.829.401z" fill="#241726"/></g><g><path d="M130.375 13.528s5.327-15.205 7.438-13.375 7.642 14.091 7.642 14.091 15.544 2.284 15.553 5.077-10.534 8.644-10.534 8.644c9.547 18.139-1.152 13.504-11.191 6.657-17.985 13.172-16.873 10.266-13.574-8.528-14.328-9.177-6.994-10.181 4.666-12.566z" fill="#e3b800"/></g></g></svg>
