<?xml version="1.0" encoding="UTF-8"?><svg id="Layer_2" xmlns="http://www.w3.org/2000/svg" viewBox="0 0 434.1 150.08"><defs><style>.cls-1{fill:#2fd180;}</style></defs><g id="Layer_1-2"><path class="cls-1" d="M371.74,127.16c-16.28,0-19.07-16.07-13.93-31.71,4.07-12.43,13.71-25.5,28.07-25.5,16.93,0,18.64,17.14,13.71,32.14-4.29,12.86-13.93,25.07-27.85,25.07Zm-4.93,22.92c28.28,0,53.56-15.64,63.63-43.92,10.5-29.78-1.29-59.56-39.85-59.56-30.85,0-54.42,19.28-63.42,44.78-10.07,28.71,.86,58.7,39.64,58.7Zm-93.84,0c11.14,0,22.5-2.36,30.42-5.78,2.79-7.71,3-15.21,.86-22.71-5.57,2.14-13.28,4.29-21.21,4.29-21.43,0-23.35-15.85-18.85-29.35,4.93-14.35,17.78-25.92,38.14-25.92,5.36,0,10.5,.86,13.71,2.79,5.57-7.5,8.78-15,9.43-22.71-4.71-2.14-12.64-4.07-22.92-4.07-33.42,0-59.78,19.5-69.2,46.49-9,25.5-2.14,56.99,39.64,56.99Zm-115.05-61.49c5.78-12.86,14.78-20.35,26.57-20.35,10.5,0,12.21,5.78,10.5,10.28-2.57,6.21-11.36,10.07-37.07,10.07Zm9.21,61.49c10.93,0,26.35-2.14,39.21-8.57,2.14-7.07,1.93-14.14-.43-21.43-8.14,4.07-19.5,6.43-29.78,6.43-15.21,0-23.57-4.93-23.35-17.35,41.56,1.07,63.2-6.43,70.27-24.85,7.07-18.64-5.14-37.71-34.07-37.71-30.85,0-53.56,22.07-61.92,45.85-8.78,25.28-3.21,57.63,40.06,57.63Zm-124.19,0c28.5,0,44.71-13.07,63.56-53.13,10.28-22.07,19.07-43.71,29.14-65.13l12,3.86c3.21,1.07,4.93-.86,3.43-3.86l-14.57-29.78c-1.07-2.14-3.43-2.36-4.93-1.71l-36.21,13.71c-3,1.07-2.79,3.86,.21,4.71l10.71,3.43c-8.78,19.93-19.71,49.92-28.5,68.77-9.86,21-14.78,35.78-31.49,35.78s-19.5-13.07-12.43-31.71c8.14-21.64,21.85-28.07,37.49-23.57,4.29-6,7.5-15,8.78-23.14-4.5-1.29-9.86-1.71-14.35-1.71-25.28,0-50.35,13.07-60.63,40.49-13.28,35.35-1,62.99,37.78,62.99Z"/></g></svg>